<?xml version="1.0" encoding="UTF-8"?>
<svg version="1.1" xmlns="http://www.w3.org/2000/svg" width="301" height="310">
<path d="M0 0 C99.33 0 198.66 0 301 0 C301 102.3 301 204.6 301 310 C201.67 310 102.34 310 0 310 C0 207.7 0 105.4 0 0 Z " fill="#FEFEFE" transform="translate(0,0)"/>
<path d="M0 0 C1.0094165 -0.0112793 2.01883301 -0.02255859 3.05883789 -0.03417969 C4.16026123 -0.02608276 5.26168457 -0.01798584 6.39648438 -0.00964355 C7.56107178 -0.01665283 8.72565918 -0.02366211 9.92553711 -0.03088379 C13.78067771 -0.04850975 17.63508612 -0.03682384 21.49023438 -0.02331543 C24.1653739 -0.026009 26.84049107 -0.02988396 29.515625 -0.03491211 C35.12442987 -0.0421874 40.733024 -0.03260414 46.34179688 -0.0135498 C52.82441344 0.008219 59.30652679 0.00116752 65.78913116 -0.02085543 C71.35700027 -0.03901302 76.92471797 -0.04156609 82.49260712 -0.03110075 C85.81719107 -0.02486765 89.14148689 -0.02559741 92.46606445 -0.0372467 C96.17238595 -0.04738291 99.87773545 -0.03195028 103.58398438 -0.00964355 C104.68540771 -0.01774048 105.78683105 -0.0258374 106.92163086 -0.03417969 C108.43575562 -0.01726074 108.43575562 -0.01726074 109.98046875 0 C110.85650757 0.0015081 111.73254639 0.0030162 112.63513184 0.00457001 C115.96349294 0.71595263 117.05171962 1.70836985 118.99023438 4.50793457 C119.38516361 7.37908416 119.53512612 9.86730079 119.50489807 12.73789978 C119.5118436 13.57491788 119.51878913 14.41193599 119.52594513 15.27431828 C119.54426475 18.08349858 119.53393715 20.8918391 119.52368164 23.7010498 C119.53073762 25.71321242 119.53948127 27.72536973 119.54978943 29.73751831 C119.57232942 35.20653767 119.56933285 40.67526826 119.56046796 46.14431643 C119.555365 50.70712859 119.56264502 55.26988615 119.56994003 59.83269268 C119.58695377 70.59533794 119.58335839 81.35784146 119.56665039 92.1204834 C119.54972666 103.2302848 119.56556391 114.33969337 119.59787327 125.44945186 C119.62454866 134.98247007 119.63185073 144.51536584 119.62335819 154.04841763 C119.61842311 159.74449413 119.6206761 165.44033421 119.64114571 171.13638115 C119.65947051 176.49221094 119.65358305 181.84747461 119.6289463 187.20327377 C119.62392829 189.17010654 119.62745374 191.1369822 119.64009476 193.10378075 C119.65597643 195.78683726 119.64112142 198.46801844 119.61842346 201.15098572 C119.63025919 201.93133743 119.64209492 202.71168915 119.65428931 203.51568788 C119.5871209 207.41743788 119.12201822 209.33109898 116.76685333 212.49140263 C113.78530088 214.65676844 112.55509241 215.13239154 108.93614197 215.12939453 C107.44519768 215.14620773 107.44519768 215.14620773 105.9241333 215.1633606 C104.84500671 215.15009735 103.76588013 215.13683411 102.65405273 215.12316895 C101.50882645 215.12871796 100.36360016 215.13426697 99.18367004 215.13998413 C95.39871365 215.15179362 91.61495077 215.12749124 87.83007812 215.10168457 C85.20121821 215.0999739 82.57235658 215.10003871 79.9434967 215.10180664 C74.43475861 215.10175311 68.926364 215.08202047 63.41772461 215.04992676 C57.05158778 215.01301721 50.68590048 215.00425407 44.31967062 215.01122427 C38.19055396 215.0175317 32.06161603 215.0065585 25.93252754 214.98725891 C23.32617509 214.98021911 20.71980902 214.97710556 18.11344719 214.97795105 C14.4743874 214.97615716 10.83597041 214.9548096 7.19702148 214.92785645 C5.57529526 214.93225235 5.57529526 214.93225235 3.92080688 214.93673706 C2.92966385 214.92538727 1.93852081 214.91403748 0.91734314 214.90234375 C0.05735183 214.89861504 -0.80263948 214.89488632 -1.68869114 214.89104462 C-4.55135308 214.41854166 -5.91589563 213.49236317 -8.00976562 211.50793457 C-9.03589161 208.42955663 -9.13066782 206.34219161 -9.12329102 203.11853027 C-9.12321548 202.01761551 -9.12313995 200.91670074 -9.12306213 199.78242493 C-9.11790085 198.59485092 -9.11273956 197.40727692 -9.10742188 196.18371582 C-9.10600693 194.96717819 -9.10459198 193.75064056 -9.10313416 192.49723816 C-9.09752875 188.60494547 -9.08497529 184.71270993 -9.07226562 180.82043457 C-9.06725132 178.18436769 -9.0626883 175.54829991 -9.05859375 172.91223145 C-9.04755756 166.44411293 -9.03081412 159.97602783 -9.00976562 153.50793457 C-8.25078979 153.50428894 -7.49181396 153.50064331 -6.70983887 153.49688721 C0.46943055 153.45890094 7.64818712 153.40192911 14.82712555 153.32403183 C18.5172545 153.28464981 22.20714816 153.25241643 25.89746094 153.23693848 C29.4639302 153.22170993 33.02975218 153.18715704 36.59593201 153.13962555 C38.60751476 153.11773367 40.61928045 153.11546617 42.63098145 153.11358643 C50.66182506 152.98594923 56.79426195 152.53358258 62.83666992 146.7364502 C66.18460252 141.20424544 66.76086994 136.40854191 66.80273438 130.00793457 C66.82787109 129.09012207 66.85300781 128.17230957 66.87890625 127.22668457 C66.93723999 124.98666906 66.97390965 122.7485827 66.99023438 120.50793457 C69.53117777 121.70051265 71.28031329 122.76082388 73.42773438 124.63293457 C78.30028617 127.91849749 84.41251574 127.28526944 89.99023438 126.50793457 C95.9821481 124.34471971 100.02141955 120.05832751 102.99023438 114.50793457 C103.91490191 112.13522597 103.91490191 112.13522597 103.99023438 109.50793457 C104.06371094 108.86211426 104.1371875 108.21629395 104.21289062 107.55090332 C104.66274119 100.96462968 102.75891036 95.89310001 98.99023438 90.50793457 C93.47597801 85.23500234 88.15989395 84.16040424 80.78320312 84.21887207 C75.12720398 84.80424821 71.41884677 88.16973646 66.99023438 91.50793457 C66.97565186 90.93349609 66.96106934 90.35905762 66.94604492 89.76721191 C66.87109713 87.13847761 66.77459444 84.51094905 66.67773438 81.88293457 C66.65517578 80.97930176 66.63261719 80.07566895 66.609375 79.14465332 C66.34798371 72.63363392 65.54931119 67.87015932 60.55273438 63.25793457 C56.32631448 60.37159903 53.5151907 59.25873105 48.34960938 59.09387207 C47.2796875 59.0552002 46.20976562 59.01652832 45.10742188 58.97668457 C43.99625 58.94574707 42.88507813 58.91480957 41.74023438 58.88293457 C40.61359375 58.8442627 39.48695313 58.80559082 38.32617188 58.76574707 C35.54768889 58.67156121 32.76921103 58.58593871 29.99023438 58.50793457 C28.54607878 62.84040135 28.31178152 66.98491551 28.99023438 71.50793457 C31.38608723 74.15380691 31.38608723 74.15380691 33.99023438 76.50793457 C35.47071107 80.68655813 35.27129579 83.74906874 33.74023438 87.88293457 C31.99023438 90.50793457 31.99023438 90.50793457 28.99023438 92.50793457 C24.77845194 92.9759104 22.70424323 92.97359252 19.11523438 90.63293457 C16.22737641 87.7450766 16.03192644 86.92485519 15.61523438 82.75793457 C15.62996259 78.63403466 16.98444901 77.28498809 19.87304688 74.35559082 C22.29507573 70.34992771 21.48085796 65.01466263 20.99023438 60.50793457 C19.13058362 58.64828382 16.04134319 59.26705908 13.54882812 59.19152832 C12.24365234 59.14963379 10.93847656 59.10773926 9.59375 59.0645752 C8.20508108 59.02475849 6.81640916 58.98504632 5.42773438 58.94543457 C4.03514254 58.90225468 2.6425641 58.85864057 1.25 58.8145752 C-2.16981363 58.70807581 -5.58970326 58.60606534 -9.00976562 58.50793457 C-9.11110598 50.89086253 -9.18120623 43.27396404 -9.22949219 35.65637207 C-9.24961938 33.06450911 -9.27692378 30.47269161 -9.31152344 27.88098145 C-9.35999064 24.15756008 -9.38272379 20.43473858 -9.40039062 16.71105957 C-9.42103577 15.55052063 -9.44168091 14.38998169 -9.46295166 13.1942749 C-9.46325378 12.11345642 -9.46355591 11.03263794 -9.46386719 9.91906738 C-9.47719086 8.49343475 -9.47719086 8.49343475 -9.49078369 7.03900146 C-8.49148298 1.78078536 -5.04603602 0.00868676 0 0 Z " fill="#FEFEFE" transform="translate(143.009765625,58.4920654296875)"/>
<path d="M0 0 C1.08946678 -0.0049926 1.08946678 -0.0049926 2.20094299 -0.01008606 C3.74015671 -0.015158 5.27938145 -0.0174943 6.81860352 -0.01733398 C9.17808096 -0.01951891 11.53708986 -0.0376669 13.89648438 -0.05664062 C15.38932131 -0.05957477 16.88216048 -0.06155942 18.375 -0.0625 C19.43756264 -0.07327827 19.43756264 -0.07327827 20.52159119 -0.08427429 C25.52508288 -0.06085462 25.52508288 -0.06085462 27.75390625 2.16796875 C28.31640625 4.79296875 28.31640625 4.79296875 27.75390625 8.16796875 C26.1066391 10.42875887 24.31854918 12.41573491 22.3828125 14.43359375 C19.58257925 17.41513706 19.41005525 19.88055756 19.4765625 23.9375 C19.96338754 27.85267035 21.41376699 31.009143 23.75390625 34.16796875 C27.22850941 36.71601107 29.01210026 37.19399703 33.31640625 37.04296875 C37.7694185 35.90947472 40.47569208 34.57841197 43.56640625 31.16796875 C45.40432918 26.52479504 45.41804518 22.09125949 44.75390625 17.16796875 C42.76422172 13.2572095 41.38856979 11.59107777 37.75390625 9.16796875 C37.44140625 5.66796875 37.44140625 5.66796875 37.75390625 2.16796875 C41.16354271 -1.24166771 45.87996203 -0.20110312 50.50390625 -0.20703125 C51.98890625 -0.24376953 51.98890625 -0.24376953 53.50390625 -0.28125 C60.46196035 -0.30915663 64.28682784 0.79971443 69.3984375 5.765625 C72.89587331 10.15204114 73.88213174 12.95915457 73.8515625 18.4921875 C73.84672852 20.03422852 73.84672852 20.03422852 73.84179688 21.60742188 C73.82922852 23.21520508 73.82922852 23.21520508 73.81640625 24.85546875 C73.81189453 25.93892578 73.80738281 27.02238281 73.80273438 28.13867188 C73.79094368 30.8151596 73.77448688 33.49153652 73.75390625 36.16796875 C74.33180908 35.67063232 74.90971191 35.1732959 75.50512695 34.66088867 C81.24361827 29.92359357 84.50133254 28.1983802 92.015625 28.67578125 C97.10261069 29.59013246 99.69850421 31.9984692 103.06640625 35.73046875 C106.41098296 40.56152399 106.3428646 45.48872751 105.75390625 51.16796875 C104.42928706 55.85201371 102.49182261 58.55303845 98.75390625 61.66796875 C93.76961105 64.04246131 88.08091295 64.35600622 82.75390625 63.16796875 C79.61382967 61.35327418 76.67339434 59.3167315 73.75390625 57.16796875 C73.78532715 58.10479492 73.78532715 58.10479492 73.81738281 59.06054688 C73.90126469 61.92951935 73.95279136 64.79823283 74.00390625 67.66796875 C74.03742188 68.65023437 74.0709375 69.6325 74.10546875 70.64453125 C74.1908178 77.04570977 73.47674378 81.84915909 69.75390625 87.16796875 C64.73194711 92.06115971 60.07229688 93.41723715 53.15942383 93.42675781 C51.84488724 93.43306213 50.53035065 93.43936646 49.17597961 93.44586182 C47.75013087 93.44228294 46.32428336 93.43818121 44.8984375 93.43359375 C43.43063798 93.43494163 41.96283889 93.43688319 40.49504089 93.43939209 C37.42609384 93.4423348 34.35726353 93.43807138 31.28833008 93.42871094 C27.35049367 93.41728657 23.412929 93.42389994 19.47510242 93.43585587 C16.44770751 93.44307182 13.42037741 93.4407883 10.39298058 93.43560028 C8.94047704 93.43426461 7.48796766 93.43590863 6.03547096 93.44055939 C4.01038344 93.44562329 1.9852753 93.43654012 -0.03979492 93.42675781 C-1.19275558 93.42516663 -2.34571625 93.42357544 -3.53361511 93.42193604 C-6.24609375 93.16796875 -6.24609375 93.16796875 -8.24609375 91.16796875 C-8.43955426 88.3114801 -8.5082934 85.55230267 -8.48901367 82.69506836 C-8.49091202 81.81856125 -8.49281036 80.94205414 -8.49476624 80.03898621 C-8.49848048 77.13267156 -8.4877614 74.22660505 -8.4765625 71.3203125 C-8.47537105 69.30774464 -8.47491746 67.29517623 -8.47517395 65.28260803 C-8.47360801 61.06166104 -8.46530932 56.84079874 -8.4519043 52.61987305 C-8.43490342 47.19659363 -8.4310902 41.77340728 -8.43184948 36.35010433 C-8.43157819 32.19384363 -8.42610376 28.03760346 -8.41884804 23.88134956 C-8.41565551 21.88096841 -8.41369261 19.88058491 -8.41295433 17.88020134 C-8.41079754 15.09058501 -8.40206804 12.30106946 -8.39135742 9.51147461 C-8.39181061 8.67664551 -8.39226379 7.84181641 -8.39273071 6.98168945 C-8.350266 -0.54308795 -6.91787832 0.01083669 0 0 Z " fill="#FDFDFD" transform="translate(42.24609375,115.83203125)"/>
<path d="M0 0 C1.49304405 -0.00856522 1.49304405 -0.00856522 3.01625061 -0.01730347 C4.11237167 -0.01842133 5.20849274 -0.01953918 6.33782959 -0.02069092 C7.48915878 -0.02565582 8.64048798 -0.03062073 9.82670593 -0.03573608 C13.6504068 -0.05038756 17.47406616 -0.05716508 21.29779053 -0.06268311 C23.27894114 -0.06698018 25.26009174 -0.07127776 27.24124217 -0.07565761 C32.76406587 -0.08747492 38.2868795 -0.09500795 43.80971456 -0.09845281 C50.94850191 -0.10293012 58.08709746 -0.12046113 65.2258265 -0.1494534 C70.7452395 -0.17108957 76.26459862 -0.18115817 81.78405356 -0.18249393 C85.07965482 -0.18354088 88.37503503 -0.19087433 91.67060089 -0.20731354 C95.35018959 -0.22435629 99.02931125 -0.22249763 102.70892334 -0.21600342 C104.34095955 -0.22982559 104.34095955 -0.22982559 106.00596619 -0.243927 C112.46885376 -0.20817168 117.19369305 0.29153647 122.14544678 4.85919189 C122.62368896 5.44700439 123.10193115 6.03481689 123.59466553 6.64044189 C124.08579834 7.22825439 124.57693115 7.81606689 125.08294678 8.42169189 C127.82656472 12.35391305 127.42775304 16.53286877 127.42260742 21.11607361 C127.42557854 21.93786993 127.42854967 22.75966626 127.43161082 23.6063655 C127.44030711 26.36993179 127.44180687 29.1334548 127.44329834 31.89703369 C127.44792592 33.87461947 127.45295049 35.85220436 127.45834351 37.82978821 C127.47147676 43.21014107 127.47791446 48.59048145 127.48235416 53.97084785 C127.48528386 57.33201055 127.48938851 60.69316984 127.49385834 64.05433083 C127.50753672 74.56967201 127.51720128 85.08500539 127.52106023 95.60035485 C127.52553967 107.74013269 127.54308091 119.87979786 127.57206082 132.01954144 C127.59367974 141.40139264 127.60376465 150.78321215 127.60510135 160.165088 C127.60614937 165.76900963 127.61205656 171.3728254 127.62992096 176.97672081 C127.64640481 182.25032648 127.64855554 187.52374675 127.63978195 192.797369 C127.63901171 194.7306976 127.64335264 196.66403617 127.6532402 198.59733963 C127.66596894 201.24174366 127.66007788 203.88549204 127.6496582 206.52989197 C127.66174281 207.67082567 127.66174281 207.67082567 127.67407155 208.83480853 C127.61842708 214.89525213 126.46483376 220.35760041 122.66094303 225.20745564 C116.73285722 229.72882532 111.58786441 229.99190733 104.28582764 229.90093994 C102.51603798 229.91430138 102.51603798 229.91430138 100.710495 229.92793274 C96.82626373 229.94917236 92.94369912 229.92692999 89.05950928 229.90216064 C86.35243194 229.90085028 83.64537997 229.90703821 80.93830872 229.91236877 C75.27172987 229.91869508 69.60562689 229.90051261 63.93914795 229.86773682 C57.40072754 229.8302288 50.86320752 229.83203275 44.3247394 229.85477799 C38.01671468 229.87577052 31.70902074 229.86842971 25.40100288 229.84845924 C22.72445714 229.84050138 20.04819335 229.84243041 17.37165642 229.85248375 C13.63023232 229.86048383 9.89036722 229.83620849 6.14910889 229.80328369 C5.04605408 229.8118338 3.94299927 229.82038391 2.80651855 229.82919312 C-2.85958063 229.74323132 -6.9678725 229.36561437 -11.37867355 225.6037302 C-15.26619056 221.35587762 -16.09336018 217.31904577 -16.09014893 211.70782471 C-16.09637772 210.4534259 -16.10260651 209.1990271 -16.10902405 207.90661621 C-16.10033893 206.55226234 -16.09102127 205.19791239 -16.08111572 203.84356689 C-16.08059661 202.44445801 -16.08111629 201.0453484 -16.08262634 199.64624023 C-16.08253692 196.72443657 -16.07216492 193.80291059 -16.05401611 190.88116455 C-16.03124543 187.13278291 -16.03080313 183.38480352 -16.03753376 179.63637161 C-16.04086999 176.75222178 -16.03425166 173.86816406 -16.02440453 170.98403168 C-16.02055254 169.60131054 -16.01940431 168.21857917 -16.02099037 166.83585358 C-16.02136018 164.90903932 -16.00728252 162.98223848 -15.99249268 161.05548096 C-15.98788528 159.95883118 -15.98327789 158.8621814 -15.97853088 157.7322998 C-15.71783447 155.14044189 -15.71783447 155.14044189 -13.71783447 153.14044189 C-10.9294281 152.89561462 -10.9294281 152.89561462 -7.32794189 152.90093994 C-6.67243851 152.89892578 -6.01693512 152.89691162 -5.34156799 152.89483643 C-3.91634226 152.89128777 -2.4911008 152.89206189 -1.06587791 152.89661217 C1.19157204 152.90219745 3.44850661 152.89305953 5.70591736 152.87940979 C12.12466649 152.84225214 18.54324357 152.82373111 24.96209717 152.83502197 C28.88744773 152.84088046 32.81207649 152.82257444 36.73727989 152.78913307 C38.23194041 152.78118664 39.72667975 152.78244595 41.22132301 152.79315758 C43.31637264 152.8075216 45.40916372 152.79118036 47.50408936 152.76812744 C48.69496658 152.76749802 49.88584381 152.76686859 51.11280823 152.76622009 C55.21180713 151.9568875 56.70508934 150.36048602 59.28216553 147.14044189 C60.01982757 144.19738876 60.01982757 144.19738876 59.91888428 141.03497314 C59.93886475 139.88706299 59.95884521 138.73915283 59.97943115 137.55645752 C59.9762085 136.36729736 59.97298584 135.17813721 59.96966553 133.95294189 C59.98619333 131.58438077 60.01052676 129.21585703 60.04388428 126.84747314 C60.04348145 125.8005127 60.04307861 124.75355225 60.04266357 123.67486572 C60.28216553 121.14044189 60.28216553 121.14044189 62.28216553 119.14044189 C69.36787981 118.45472761 69.36787981 118.45472761 72.78216553 121.01544189 C74.28216553 123.14044189 74.28216553 123.14044189 74.28216553 125.14044189 C78.87801745 127.5124945 83.22802774 127.70201276 88.28216553 127.14044189 C92.13635134 125.77006472 93.65909659 123.85833624 95.59466553 120.39044189 C97.60764229 115.89616316 98.34401731 112.02175881 96.58685303 107.25372314 C94.95236476 103.97787901 93.5236038 102.30676604 90.46966553 100.20294189 C86.73969332 98.95961783 84.19134816 98.65179407 80.28216553 99.14044189 C77.09123023 100.85863782 74.88749422 102.18595259 72.93450928 105.26544189 C71.28216553 107.14044189 71.28216553 107.14044189 68.80169678 107.53106689 C67.90837646 107.48466064 67.01505615 107.43825439 66.09466553 107.39044189 C65.19361084 107.35434814 64.29255615 107.31825439 63.36419678 107.28106689 C62.67712646 107.23466064 61.99005615 107.18825439 61.28216553 107.14044189 C59.97940302 104.53491687 60.13886375 102.56713456 60.10638428 99.65216064 C60.07061279 98.00377197 60.07061279 98.00377197 60.03411865 96.32208252 C59.99136945 94.00455777 59.96000024 91.68679338 59.94036865 89.36895752 C59.82536494 84.79287969 59.71164841 81.11175196 57.84857178 76.89825439 C53.92017691 74.20757298 50.19464981 74.3589333 45.53216553 74.32794189 C44.64400146 74.30280518 43.7558374 74.27766846 42.84075928 74.25177002 C40.65411634 74.1929893 38.46947021 74.15664651 36.28216553 74.14044189 C36.90091553 75.21294189 37.51966553 76.28544189 38.15716553 77.39044189 C41.51373557 83.30121463 43.20277024 87.21885829 42.28216553 94.14044189 C40.55539542 99.45142672 38.04480198 103.08746981 33.28216553 106.14044189 C28.93166888 107.59060744 24.82882368 107.65114297 20.28216553 107.14044189 C14.96651395 104.48261611 11.17980544 100.83336165 9.28216553 95.14044189 C8.13241531 83.90573974 8.13241531 83.90573974 11.71966553 79.07794189 C12.56529053 78.10856689 13.41091553 77.13919189 14.28216553 76.14044189 C14.77716553 74.65544189 14.77716553 74.65544189 15.28216553 73.14044189 C14.37861328 73.14567871 13.47506104 73.15091553 12.54412842 73.15631104 C9.20265063 73.17331875 5.86121861 73.18587523 2.51971436 73.19537354 C1.0714648 73.2004129 -0.37677964 73.20724443 -1.82501221 73.21588135 C-3.90258035 73.22796436 -5.98008144 73.23367401 -8.05767822 73.23809814 C-9.30927734 73.24333496 -10.56087646 73.24857178 -11.85040283 73.25396729 C-14.71783447 73.14044189 -14.71783447 73.14044189 -15.71783447 72.14044189 C-15.82747385 70.26494623 -15.86693802 68.38531195 -15.87896729 66.50665283 C-15.88857483 65.30160095 -15.89818237 64.09654907 -15.90808105 62.85498047 C-15.91233093 61.54152649 -15.91658081 60.22807251 -15.92095947 58.87481689 C-15.92671007 57.52058916 -15.93246782 56.16636146 -15.93823242 54.81213379 C-15.94875384 51.96730163 -15.95458834 49.12249782 -15.95806885 46.27764893 C-15.96354199 42.63810919 -15.98753934 38.99894577 -16.0160408 35.35952377 C-16.03470165 32.55933557 -16.0398747 29.75923713 -16.04140472 26.958992 C-16.04589369 24.96651376 -16.06452884 22.97408363 -16.08337402 20.98168945 C-16.08037292 19.76402893 -16.07737183 18.54636841 -16.07427979 17.29180908 C-16.07792542 16.2222699 -16.08157104 15.15273071 -16.08532715 14.05078125 C-15.49877986 9.40565015 -13.28450342 6.24922459 -9.65533447 3.39044189 C-5.99339431 0.58555156 -4.49814943 0.01541689 0 0 Z M-8.71783447 12.14044189 C-9.29248922 14.71372386 -9.29248922 14.71372386 -9.17193604 17.55157471 C-9.17163391 18.63239319 -9.17133179 19.71321167 -9.17102051 20.82678223 C-9.15037537 21.98732117 -9.12973022 23.14786011 -9.10845947 24.34356689 C-9.10279968 25.53649353 -9.09713989 26.72942017 -9.09130859 27.95849609 C-9.06891373 31.76955246 -9.01870876 35.57966956 -8.96783447 39.39044189 C-8.94777362 41.97376165 -8.92952214 44.55709614 -8.91314697 47.14044189 C-8.86903858 53.47409583 -8.80209425 59.80720176 -8.71783447 66.14044189 C-7.40794556 66.17802612 -7.40794556 66.17802612 -6.07159424 66.21636963 C-2.84180895 66.31131899 0.38780707 66.41056218 3.61737061 66.51275635 C5.01705752 66.55615623 6.41679912 66.59782753 7.81658936 66.63775635 C9.82478047 66.69533634 11.83277702 66.75958189 13.84075928 66.82403564 C15.05046387 66.86069336 16.26016846 66.89735107 17.50653076 66.93511963 C20.28216553 67.14044189 20.28216553 67.14044189 21.28216553 68.14044189 C22.38922149 78.30954165 22.38922149 78.30954165 20.16497803 81.98809814 C19.7086499 82.45087158 19.25232178 82.91364502 18.78216553 83.39044189 C16.22645978 86.20171822 15.87085674 86.65980877 15.71966553 90.20294189 C16.33375988 94.50160235 17.20461943 96.15341186 20.28216553 99.14044189 C23.4208774 100.70979783 25.82072375 100.49245292 29.28216553 100.14044189 C32.16050864 98.13811625 33.81082918 96.58354578 34.91497803 93.20294189 C35.52164429 89.79528461 35.43834289 87.49184096 34.03216553 84.32794189 C32.42553796 82.16914778 32.42553796 82.16914778 30.68841553 80.81622314 C28.77300197 78.53368865 28.94467118 77.08025196 29.03216553 74.14044189 C29.04763428 73.27419189 29.06310303 72.40794189 29.07904053 71.51544189 C29.28216553 69.14044189 29.28216553 69.14044189 30.28216553 66.14044189 C34.11678842 66.16343881 37.94850105 66.24101578 41.78216553 66.32794189 C42.85982178 66.33374268 43.93747803 66.33954346 45.04779053 66.34552002 C52.05638606 66.53782904 56.86561074 67.54390924 62.28216553 72.14044189 C65.57005746 75.74651691 66.3846844 79.01122224 66.59857178 83.80841064 C66.64046631 84.70108643 66.68236084 85.59376221 66.7255249 86.51348877 C66.76484131 87.4422583 66.80415771 88.37102783 66.84466553 89.32794189 C66.88784912 90.26831299 66.93103271 91.20868408 66.9755249 92.17755127 C67.08155217 94.49837044 67.18361582 96.81929514 67.28216553 99.14044189 C68.0962085 98.50815674 68.0962085 98.50815674 68.92669678 97.86309814 C69.64212646 97.31524658 70.35755615 96.76739502 71.09466553 96.20294189 C71.80236084 95.65766846 72.51005615 95.11239502 73.23919678 94.55059814 C78.07315589 91.2139648 83.64162889 91.69534933 89.28216553 92.14044189 C95.4085795 94.296032 99.42312506 98.29295118 102.59466553 103.89044189 C105.16459922 109.40487452 104.90238173 114.50452302 103.53216553 120.32794189 C101.01220034 125.99786357 98.15805405 130.09454686 92.76263428 133.22247314 C87.37313272 135.21701309 80.62360912 135.52466227 75.25482178 133.30059814 C73.71966553 132.26544189 73.71966553 132.26544189 71.28216553 130.14044189 C69.96300733 129.44614811 68.63163548 128.77380834 67.28216553 128.14044189 C67.27805664 128.70440674 67.27394775 129.26837158 67.26971436 129.84942627 C67.23646788 132.44743892 67.16579782 135.04320113 67.09466553 137.64044189 C67.08596436 138.97075439 67.08596436 138.97075439 67.0770874 140.32794189 C66.87325927 146.4880809 65.87387403 151.73512167 61.28216553 156.14044189 C54.10087589 160.9162368 47.38535326 160.74192401 38.93841553 160.74981689 C37.55977456 160.76482052 36.18115143 160.78155221 34.80255127 160.79992676 C31.19902662 160.84336876 27.59574432 160.86354726 23.99200439 160.87866211 C20.30472621 160.89831754 16.6177066 160.94027759 12.93060303 160.98028564 C5.71452711 161.05533628 -1.50143943 161.10577899 -8.71783447 161.14044189 C-8.79390418 168.88167018 -8.84644281 176.62280205 -8.88262939 184.36431885 C-8.89771504 186.99781903 -8.91818613 189.6312941 -8.94415283 192.26470947 C-8.98054466 196.05017293 -8.99756338 199.83530417 -9.01080322 203.62091064 C-9.02628708 204.79816208 -9.04177094 205.97541351 -9.057724 207.18833923 C-9.05795059 208.28910294 -9.05817719 209.38986664 -9.05841064 210.52398682 C-9.06507248 211.48995285 -9.07173431 212.45591888 -9.07859802 213.45115662 C-8.64848681 216.65738896 -7.60639209 218.53617986 -5.71783447 221.14044189 C-3.29440001 222.35215912 -1.7399054 222.2768288 0.96876526 222.29434204 C1.95715897 222.3029425 2.94555267 222.31154297 3.96389771 222.32040405 C5.59640976 222.32679398 5.59640976 222.32679398 7.26190186 222.33331299 C8.40508377 222.34149048 9.54826569 222.34966797 10.72608948 222.35809326 C14.52211985 222.38297599 18.31811279 222.3994697 22.11419678 222.41387939 C23.40796423 222.41920307 24.70173168 222.42452675 26.03470421 222.43001175 C31.47087537 222.45124642 36.9070343 222.47037656 42.34323597 222.48163414 C50.13366445 222.49787318 57.92359415 222.53104949 65.71383458 222.58803499 C71.85196685 222.63140423 77.98990344 222.6473791 84.12817955 222.65376663 C86.73933146 222.66049681 89.35047561 222.67576425 91.96152687 222.69965744 C95.61282166 222.73116618 99.26285137 222.73136652 102.91424561 222.72393799 C103.99651428 222.74034332 105.07878296 222.75674866 106.19384766 222.77365112 C107.68912743 222.7611734 107.68912743 222.7611734 109.21461487 222.7484436 C110.50906383 222.75340882 110.50906383 222.75340882 111.82966328 222.75847435 C115.56446101 221.81730245 116.99865495 220.2066193 119.28216553 217.14044189 C119.77250495 214.1614956 119.9554573 211.75719781 119.91035461 208.78349304 C119.917449 207.94491495 119.92454339 207.10633685 119.93185276 206.2423473 C119.94944839 203.43374201 119.93132039 200.62651775 119.91326904 197.81793213 C119.91840722 195.80399953 119.92568773 193.79007141 119.93495178 191.77615356 C119.95348556 186.30717825 119.940515 180.83868966 119.92086148 175.36973453 C119.90449237 169.65007367 119.91328535 163.93044406 119.91838074 158.21076965 C119.92290326 148.60627453 119.90702099 139.00197406 119.87908936 129.39752197 C119.84702773 118.28714835 119.84705626 107.17712567 119.86430413 96.0667271 C119.88015645 85.38529644 119.87344456 74.70399467 119.85636711 64.02256966 C119.84948738 59.47357829 119.85053851 54.92468995 119.85791206 50.3757 C119.86556167 45.02154429 119.85349193 39.667789 119.82606316 34.31370163 C119.81916469 32.34645718 119.81909693 30.37917543 119.82627869 28.41193199 C119.8349397 25.73097379 119.8190748 23.05126093 119.79682922 20.3704071 C119.80919037 19.19653345 119.80919037 19.19653345 119.82180125 17.99894518 C119.76926009 14.57959873 119.53132455 12.50027243 117.5631094 9.65781498 C114.88227858 7.87442146 113.47250831 7.63801632 110.2723999 7.63250732 C108.75827515 7.61558838 108.75827515 7.61558838 107.21356201 7.59832764 C106.11213867 7.60642456 105.01071533 7.61452148 103.87591553 7.62286377 C102.71132812 7.61585449 101.54674072 7.60884521 100.34686279 7.60162354 C96.49172219 7.58399757 92.63731378 7.59568349 88.78216553 7.60919189 C86.107026 7.60649832 83.43190884 7.60262336 80.7567749 7.59759521 C75.14797003 7.59031993 69.5393759 7.59990318 63.93060303 7.61895752 C57.44798646 7.64072632 50.96587311 7.63367485 44.48326874 7.6116519 C38.91539963 7.5934943 33.34768193 7.59094124 27.77979279 7.60140657 C24.45520883 7.60763967 21.13091301 7.60690991 17.80633545 7.59526062 C14.10001395 7.58512442 10.39466446 7.60055705 6.68841553 7.62286377 C5.58699219 7.61476685 4.48556885 7.60666992 3.35076904 7.59832764 C2.34135254 7.60960693 1.33193604 7.62088623 0.29193115 7.63250732 C-1.02212708 7.63476948 -1.02212708 7.63476948 -2.36273193 7.63707733 C-5.50924373 8.30959265 -6.72345302 9.67040147 -8.71783447 12.14044189 Z " fill="#3D338E" transform="translate(142.71783447265625,50.85955810546875)"/>
<path d="M0 0 C1.08946678 -0.0049926 1.08946678 -0.0049926 2.20094299 -0.01008606 C3.74015671 -0.015158 5.27938145 -0.0174943 6.81860352 -0.01733398 C9.17808096 -0.01951891 11.53708986 -0.0376669 13.89648438 -0.05664062 C15.38932131 -0.05957477 16.88216048 -0.06155942 18.375 -0.0625 C19.43756264 -0.07327827 19.43756264 -0.07327827 20.52159119 -0.08427429 C25.52508288 -0.06085462 25.52508288 -0.06085462 27.75390625 2.16796875 C28.31640625 4.79296875 28.31640625 4.79296875 27.75390625 8.16796875 C26.1066391 10.42875887 24.31854918 12.41573491 22.3828125 14.43359375 C19.58257925 17.41513706 19.41005525 19.88055756 19.4765625 23.9375 C19.96338754 27.85267035 21.41376699 31.009143 23.75390625 34.16796875 C27.22850941 36.71601107 29.01210026 37.19399703 33.31640625 37.04296875 C37.7694185 35.90947472 40.47569208 34.57841197 43.56640625 31.16796875 C45.40432918 26.52479504 45.41804518 22.09125949 44.75390625 17.16796875 C42.76422172 13.2572095 41.38856979 11.59107777 37.75390625 9.16796875 C37.44140625 5.66796875 37.44140625 5.66796875 37.75390625 2.16796875 C41.16354271 -1.24166771 45.87996203 -0.20110312 50.50390625 -0.20703125 C51.98890625 -0.24376953 51.98890625 -0.24376953 53.50390625 -0.28125 C60.46196035 -0.30915663 64.28682784 0.79971443 69.3984375 5.765625 C72.89587331 10.15204114 73.88213174 12.95915457 73.8515625 18.4921875 C73.84672852 20.03422852 73.84672852 20.03422852 73.84179688 21.60742188 C73.82922852 23.21520508 73.82922852 23.21520508 73.81640625 24.85546875 C73.81189453 25.93892578 73.80738281 27.02238281 73.80273438 28.13867188 C73.79094368 30.8151596 73.77448688 33.49153652 73.75390625 36.16796875 C74.33180908 35.67063232 74.90971191 35.1732959 75.50512695 34.66088867 C81.24361827 29.92359357 84.50133254 28.1983802 92.015625 28.67578125 C97.10261069 29.59013246 99.69850421 31.9984692 103.06640625 35.73046875 C106.41098296 40.56152399 106.3428646 45.48872751 105.75390625 51.16796875 C104.42928706 55.85201371 102.49182261 58.55303845 98.75390625 61.66796875 C93.76961105 64.04246131 88.08091295 64.35600622 82.75390625 63.16796875 C79.61382967 61.35327418 76.67339434 59.3167315 73.75390625 57.16796875 C73.78532715 58.10479492 73.78532715 58.10479492 73.81738281 59.06054688 C73.90126469 61.92951935 73.95279136 64.79823283 74.00390625 67.66796875 C74.03742188 68.65023437 74.0709375 69.6325 74.10546875 70.64453125 C74.1908178 77.04570977 73.47674378 81.84915909 69.75390625 87.16796875 C64.73194711 92.06115971 60.07229688 93.41723715 53.15942383 93.42675781 C51.84488724 93.43306213 50.53035065 93.43936646 49.17597961 93.44586182 C47.75013087 93.44228294 46.32428336 93.43818121 44.8984375 93.43359375 C43.43063798 93.43494163 41.96283889 93.43688319 40.49504089 93.43939209 C37.42609384 93.4423348 34.35726353 93.43807138 31.28833008 93.42871094 C27.35049367 93.41728657 23.412929 93.42389994 19.47510242 93.43585587 C16.44770751 93.44307182 13.42037741 93.4407883 10.39298058 93.43560028 C8.94047704 93.43426461 7.48796766 93.43590863 6.03547096 93.44055939 C4.01038344 93.44562329 1.9852753 93.43654012 -0.03979492 93.42675781 C-1.19275558 93.42516663 -2.34571625 93.42357544 -3.53361511 93.42193604 C-6.24609375 93.16796875 -6.24609375 93.16796875 -8.24609375 91.16796875 C-8.43955426 88.3114801 -8.5082934 85.55230267 -8.48901367 82.69506836 C-8.49091202 81.81856125 -8.49281036 80.94205414 -8.49476624 80.03898621 C-8.49848048 77.13267156 -8.4877614 74.22660505 -8.4765625 71.3203125 C-8.47537105 69.30774464 -8.47491746 67.29517623 -8.47517395 65.28260803 C-8.47360801 61.06166104 -8.46530932 56.84079874 -8.4519043 52.61987305 C-8.43490342 47.19659363 -8.4310902 41.77340728 -8.43184948 36.35010433 C-8.43157819 32.19384363 -8.42610376 28.03760346 -8.41884804 23.88134956 C-8.41565551 21.88096841 -8.41369261 19.88058491 -8.41295433 17.88020134 C-8.41079754 15.09058501 -8.40206804 12.30106946 -8.39135742 9.51147461 C-8.39181061 8.67664551 -8.39226379 7.84181641 -8.39273071 6.98168945 C-8.350266 -0.54308795 -6.91787832 0.01083669 0 0 Z M-1.24609375 7.16796875 C-1.24609375 32.90796875 -1.24609375 58.64796875 -1.24609375 85.16796875 C8.88078125 85.27109375 19.00765625 85.37421875 29.44140625 85.48046875 C32.63272217 85.52598877 35.82403809 85.57150879 39.11206055 85.6184082 C41.64240466 85.63301166 44.17276052 85.64575265 46.703125 85.65625 C48.01623657 85.68182983 49.32934814 85.70740967 50.68225098 85.73376465 C57.94142011 86.05709636 57.94142011 86.05709636 64.06958008 82.82495117 C66.58817238 78.85193479 66.90413558 75.83834723 67.03515625 71.22265625 C67.07253906 70.06378906 67.10992187 68.90492188 67.1484375 67.7109375 C67.21897446 65.25781894 67.28928553 62.80469388 67.359375 60.3515625 C67.39675781 59.19527344 67.43414062 58.03898437 67.47265625 56.84765625 C67.50294922 55.78272949 67.53324219 54.71780273 67.56445312 53.62060547 C67.75390625 51.16796875 67.75390625 51.16796875 68.75390625 50.16796875 C72.13360581 49.73704167 75.38108131 49.66769328 78.75390625 50.16796875 C81.25390625 52.60546875 81.25390625 52.60546875 82.75390625 55.16796875 C86.20421886 56.89312506 89.98106929 56.66474799 93.75390625 56.16796875 C96.786063 53.96965511 97.57045023 52.71833681 98.75390625 49.16796875 C99.25416976 44.7489744 99.02171294 42.64310965 96.81640625 38.73046875 C93.24227163 35.73986631 91.48319275 35.28967218 86.94140625 35.55859375 C83.75167187 36.44716261 82.49601217 38.35205768 80.43359375 40.828125 C77.52555284 43.14779484 74.39851628 42.65268046 70.828125 42.4765625 C68.75390625 42.16796875 68.75390625 42.16796875 67.75390625 41.16796875 C67.6321277 39.22780651 67.57417148 37.28357365 67.54296875 35.33984375 C67.51460938 34.14746094 67.48625 32.95507812 67.45703125 31.7265625 C67.40527135 29.2032675 67.36090601 26.67980915 67.32421875 24.15625 C67.29328125 22.95871094 67.26234375 21.76117188 67.23046875 20.52734375 C67.20073975 18.87943848 67.20073975 18.87943848 67.17041016 17.19824219 C66.70585694 13.81838607 65.7430677 11.91326932 63.75390625 9.16796875 C60.47917022 6.79022563 57.4621485 6.95692001 53.50390625 7.04296875 C51.88742188 7.07003906 51.88742188 7.07003906 50.23828125 7.09765625 C49.4184375 7.12085937 48.59859375 7.1440625 47.75390625 7.16796875 C48.41390625 8.19921875 49.07390625 9.23046875 49.75390625 10.29296875 C53.01149792 16.8314206 52.99507083 24.6983817 51.05859375 31.671875 C48.55416847 37.21738813 44.7006011 40.49552032 39.44140625 43.48046875 C32.89200251 45.15589761 27.38613829 44.7111208 21.47265625 41.3671875 C18.96236424 39.6156883 17.40495157 37.73626146 15.75390625 35.16796875 C15.17640625 34.32234375 14.59890625 33.47671875 14.00390625 32.60546875 C11.91240318 26.85383532 11.54246055 20.5033777 13.65625 14.68359375 C14.61839198 12.80724568 15.67891211 10.98202136 16.75390625 9.16796875 C16.75390625 8.50796875 16.75390625 7.84796875 16.75390625 7.16796875 C10.81390625 7.16796875 4.87390625 7.16796875 -1.24609375 7.16796875 Z " fill="#382F8B" transform="translate(42.24609375,115.83203125)"/>
</svg>
