<svg width="20" height="20" viewBox="0 0 20 20" fill="none" xmlns="http://www.w3.org/2000/svg">
<g clip-path="url(#clip0_1486_940)">
<mask id="path-1-inside-1_1486_940" fill="white">
<path d="M6.48438 0H2.92969C1.31426 0 0 1.31426 0 2.92969V6.48438C0 8.0998 1.31426 9.41406 2.92969 9.41406H6.48438C8.0998 9.41406 9.41406 8.0998 9.41406 6.48438V2.92969C9.41406 1.31426 8.0998 0 6.48438 0ZM8.24219 6.48438C8.24219 7.45363 7.45363 8.24219 6.48438 8.24219H2.92969C1.96043 8.24219 1.17188 7.45363 1.17188 6.48438V2.92969C1.17188 1.96043 1.96043 1.17188 2.92969 1.17188H6.48438C7.45363 1.17188 8.24219 1.96043 8.24219 2.92969V6.48438Z"/>
</mask>
<path d="M6.48438 0H2.92969C1.31426 0 0 1.31426 0 2.92969V6.48438C0 8.0998 1.31426 9.41406 2.92969 9.41406H6.48438C8.0998 9.41406 9.41406 8.0998 9.41406 6.48438V2.92969C9.41406 1.31426 8.0998 0 6.48438 0ZM8.24219 6.48438C8.24219 7.45363 7.45363 8.24219 6.48438 8.24219H2.92969C1.96043 8.24219 1.17188 7.45363 1.17188 6.48438V2.92969C1.17188 1.96043 1.96043 1.17188 2.92969 1.17188H6.48438C7.45363 1.17188 8.24219 1.96043 8.24219 2.92969V6.48438Z" fill="black"/>
<path d="M6.48438 0V-1.5H2.92969V0V1.5H6.48438V0ZM2.92969 0V-1.5C0.485831 -1.5 -1.5 0.485831 -1.5 2.92969H0H1.5C1.5 2.14268 2.14268 1.5 2.92969 1.5V0ZM0 2.92969H-1.5V6.48438H0H1.5V2.92969H0ZM0 6.48438H-1.5C-1.5 8.92823 0.485831 10.9141 2.92969 10.9141V9.41406V7.91406C2.14268 7.91406 1.5 7.27138 1.5 6.48438H0ZM2.92969 9.41406V10.9141H6.48438V9.41406V7.91406H2.92969V9.41406ZM6.48438 9.41406V10.9141C8.92823 10.9141 10.9141 8.92823 10.9141 6.48438H9.41406H7.91406C7.91406 7.27138 7.27138 7.91406 6.48438 7.91406V9.41406ZM9.41406 6.48438H10.9141V2.92969H9.41406H7.91406V6.48438H9.41406ZM9.41406 2.92969H10.9141C10.9141 0.485831 8.92823 -1.5 6.48438 -1.5V0V1.5C7.27138 1.5 7.91406 2.14268 7.91406 2.92969H9.41406ZM8.24219 6.48438H6.74219C6.74219 6.62521 6.62521 6.74219 6.48438 6.74219V8.24219V9.74219C8.28206 9.74219 9.74219 8.28206 9.74219 6.48438H8.24219ZM6.48438 8.24219V6.74219H2.92969V8.24219V9.74219H6.48438V8.24219ZM2.92969 8.24219V6.74219C2.78886 6.74219 2.67188 6.62521 2.67188 6.48438H1.17188H-0.328125C-0.328125 8.28206 1.132 9.74219 2.92969 9.74219V8.24219ZM1.17188 6.48438H2.67188V2.92969H1.17188H-0.328125V6.48438H1.17188ZM1.17188 2.92969H2.67188C2.67188 2.78886 2.78886 2.67188 2.92969 2.67188V1.17188V-0.328125C1.132 -0.328125 -0.328125 1.132 -0.328125 2.92969H1.17188ZM2.92969 1.17188V2.67188H6.48438V1.17188V-0.328125H2.92969V1.17188ZM6.48438 1.17188V2.67188C6.62521 2.67188 6.74219 2.78886 6.74219 2.92969H8.24219H9.74219C9.74219 1.132 8.28206 -0.328125 6.48438 -0.328125V1.17188ZM8.24219 2.92969H6.74219V6.48438H8.24219H9.74219V2.92969H8.24219Z" fill="black" mask="url(#path-1-inside-1_1486_940)"/>
<mask id="path-3-inside-2_1486_940" fill="white">
<path d="M17.0703 10.5859H13.5156C11.9002 10.5859 10.5859 11.9002 10.5859 13.5156V17.0703C10.5859 18.6857 11.9002 20 13.5156 20H17.0703C18.6857 20 20 18.6857 20 17.0703V13.5156C20 11.9002 18.6857 10.5859 17.0703 10.5859ZM18.8281 17.0703C18.8281 18.0396 18.0396 18.8281 17.0703 18.8281H13.5156C12.5464 18.8281 11.7578 18.0396 11.7578 17.0703V13.5156C11.7578 12.5464 12.5464 11.7578 13.5156 11.7578H17.0703C18.0396 11.7578 18.8281 12.5464 18.8281 13.5156V17.0703Z"/>
</mask>
<path d="M17.0703 10.5859H13.5156C11.9002 10.5859 10.5859 11.9002 10.5859 13.5156V17.0703C10.5859 18.6857 11.9002 20 13.5156 20H17.0703C18.6857 20 20 18.6857 20 17.0703V13.5156C20 11.9002 18.6857 10.5859 17.0703 10.5859ZM18.8281 17.0703C18.8281 18.0396 18.0396 18.8281 17.0703 18.8281H13.5156C12.5464 18.8281 11.7578 18.0396 11.7578 17.0703V13.5156C11.7578 12.5464 12.5464 11.7578 13.5156 11.7578H17.0703C18.0396 11.7578 18.8281 12.5464 18.8281 13.5156V17.0703Z" fill="black"/>
<path d="M17.0703 10.5859V9.08594H13.5156V10.5859V12.0859H17.0703V10.5859ZM13.5156 10.5859V9.08594C11.0718 9.08594 9.08594 11.0718 9.08594 13.5156H10.5859H12.0859C12.0859 12.7286 12.7286 12.0859 13.5156 12.0859V10.5859ZM10.5859 13.5156H9.08594V17.0703H10.5859H12.0859V13.5156H10.5859ZM10.5859 17.0703H9.08594C9.08594 19.5142 11.0718 21.5 13.5156 21.5V20V18.5C12.7286 18.5 12.0859 17.8573 12.0859 17.0703H10.5859ZM13.5156 20V21.5H17.0703V20V18.5H13.5156V20ZM17.0703 20V21.5C19.5142 21.5 21.5 19.5142 21.5 17.0703H20H18.5C18.5 17.8573 17.8573 18.5 17.0703 18.5V20ZM20 17.0703H21.5V13.5156H20H18.5V17.0703H20ZM20 13.5156H21.5C21.5 11.0718 19.5142 9.08594 17.0703 9.08594V10.5859V12.0859C17.8573 12.0859 18.5 12.7286 18.5 13.5156H20ZM18.8281 17.0703H17.3281C17.3281 17.2111 17.2111 17.3281 17.0703 17.3281V18.8281V20.3281C18.868 20.3281 20.3281 18.868 20.3281 17.0703H18.8281ZM17.0703 18.8281V17.3281H13.5156V18.8281V20.3281H17.0703V18.8281ZM13.5156 18.8281V17.3281C13.3748 17.3281 13.2578 17.2111 13.2578 17.0703H11.7578H10.2578C10.2578 18.868 11.7179 20.3281 13.5156 20.3281V18.8281ZM11.7578 17.0703H13.2578V13.5156H11.7578H10.2578V17.0703H11.7578ZM11.7578 13.5156H13.2578C13.2578 13.3748 13.3748 13.2578 13.5156 13.2578V11.7578V10.2578C11.7179 10.2578 10.2578 11.7179 10.2578 13.5156H11.7578ZM13.5156 11.7578V13.2578H17.0703V11.7578V10.2578H13.5156V11.7578ZM17.0703 11.7578V13.2578C17.2111 13.2578 17.3281 13.3748 17.3281 13.5156H18.8281H20.3281C20.3281 11.7179 18.868 10.2578 17.0703 10.2578V11.7578ZM18.8281 13.5156H17.3281V17.0703H18.8281H20.3281V13.5156H18.8281Z" fill="black" mask="url(#path-3-inside-2_1486_940)"/>
<mask id="path-5-inside-3_1486_940" fill="white">
<path d="M17.0703 0H13.5156C11.9002 0 10.5859 1.31426 10.5859 2.92969V6.48438C10.5859 8.74598 8.74598 10.5859 6.48438 10.5859H2.92969C1.31426 10.5859 0 11.9002 0 13.5156V17.0703C0 18.6857 1.31426 20 2.92969 20H6.48438C8.0998 20 9.41406 18.6857 9.41406 17.0703V13.5156C9.41406 11.254 11.254 9.41406 13.5156 9.41406H17.0703C18.6857 9.41406 20 8.0998 20 6.48438V2.92969C20 1.31426 18.6857 0 17.0703 0ZM8.24219 13.5156V17.0703C8.24219 18.0396 7.45363 18.8281 6.48438 18.8281H2.92969C1.96043 18.8281 1.17188 18.0396 1.17188 17.0703V13.5156C1.17188 12.5464 1.96043 11.7578 2.92969 11.7578H6.48438C7.29793 11.7578 8.06906 11.5726 8.75781 11.2422C8.42738 11.9309 8.24219 12.7021 8.24219 13.5156ZM18.8281 6.48438C18.8281 7.45363 18.0396 8.24219 17.0703 8.24219H13.5156C12.7021 8.24219 11.9309 8.42738 11.2422 8.75781C11.5726 8.06906 11.7578 7.29793 11.7578 6.48438V2.92969C11.7578 1.96043 12.5464 1.17188 13.5156 1.17188H17.0703C18.0396 1.17188 18.8281 1.96043 18.8281 2.92969V6.48438Z"/>
</mask>
<path d="M17.0703 0H13.5156C11.9002 0 10.5859 1.31426 10.5859 2.92969V6.48438C10.5859 8.74598 8.74598 10.5859 6.48438 10.5859H2.92969C1.31426 10.5859 0 11.9002 0 13.5156V17.0703C0 18.6857 1.31426 20 2.92969 20H6.48438C8.0998 20 9.41406 18.6857 9.41406 17.0703V13.5156C9.41406 11.254 11.254 9.41406 13.5156 9.41406H17.0703C18.6857 9.41406 20 8.0998 20 6.48438V2.92969C20 1.31426 18.6857 0 17.0703 0ZM8.24219 13.5156V17.0703C8.24219 18.0396 7.45363 18.8281 6.48438 18.8281H2.92969C1.96043 18.8281 1.17188 18.0396 1.17188 17.0703V13.5156C1.17188 12.5464 1.96043 11.7578 2.92969 11.7578H6.48438C7.29793 11.7578 8.06906 11.5726 8.75781 11.2422C8.42738 11.9309 8.24219 12.7021 8.24219 13.5156ZM18.8281 6.48438C18.8281 7.45363 18.0396 8.24219 17.0703 8.24219H13.5156C12.7021 8.24219 11.9309 8.42738 11.2422 8.75781C11.5726 8.06906 11.7578 7.29793 11.7578 6.48438V2.92969C11.7578 1.96043 12.5464 1.17188 13.5156 1.17188H17.0703C18.0396 1.17188 18.8281 1.96043 18.8281 2.92969V6.48438Z" fill="black"/>
<path d="M8.75781 11.2422L10.1102 11.891L11.9557 8.0443L8.10899 9.88977L8.75781 11.2422ZM11.2422 8.75781L9.88977 8.10899L8.0443 11.9557L11.891 10.1102L11.2422 8.75781ZM17.0703 0V-1.5H13.5156V0V1.5H17.0703V0ZM13.5156 0V-1.5C11.0718 -1.5 9.08594 0.485831 9.08594 2.92969H10.5859H12.0859C12.0859 2.14268 12.7286 1.5 13.5156 1.5V0ZM10.5859 2.92969H9.08594V6.48438H10.5859H12.0859V2.92969H10.5859ZM10.5859 6.48438H9.08594C9.08594 7.91755 7.91755 9.08594 6.48438 9.08594V10.5859V12.0859C9.5744 12.0859 12.0859 9.5744 12.0859 6.48438H10.5859ZM6.48438 10.5859V9.08594H2.92969V10.5859V12.0859H6.48438V10.5859ZM2.92969 10.5859V9.08594C0.485831 9.08594 -1.5 11.0718 -1.5 13.5156H0H1.5C1.5 12.7286 2.14268 12.0859 2.92969 12.0859V10.5859ZM0 13.5156H-1.5V17.0703H0H1.5V13.5156H0ZM0 17.0703H-1.5C-1.5 19.5142 0.485831 21.5 2.92969 21.5V20V18.5C2.14268 18.5 1.5 17.8573 1.5 17.0703H0ZM2.92969 20V21.5H6.48438V20V18.5H2.92969V20ZM6.48438 20V21.5C8.92823 21.5 10.9141 19.5142 10.9141 17.0703H9.41406H7.91406C7.91406 17.8573 7.27138 18.5 6.48438 18.5V20ZM9.41406 17.0703H10.9141V13.5156H9.41406H7.91406V17.0703H9.41406ZM9.41406 13.5156H10.9141C10.9141 12.0825 12.0825 10.9141 13.5156 10.9141V9.41406V7.91406C10.4256 7.91406 7.91406 10.4256 7.91406 13.5156H9.41406ZM13.5156 9.41406V10.9141H17.0703V9.41406V7.91406H13.5156V9.41406ZM17.0703 9.41406V10.9141C19.5142 10.9141 21.5 8.92823 21.5 6.48438H20H18.5C18.5 7.27138 17.8573 7.91406 17.0703 7.91406V9.41406ZM20 6.48438H21.5V2.92969H20H18.5V6.48438H20ZM20 2.92969H21.5C21.5 0.485831 19.5142 -1.5 17.0703 -1.5V0V1.5C17.8573 1.5 18.5 2.14268 18.5 2.92969H20ZM8.24219 13.5156H6.74219V17.0703H8.24219H9.74219V13.5156H8.24219ZM8.24219 17.0703H6.74219C6.74219 17.2111 6.62521 17.3281 6.48438 17.3281V18.8281V20.3281C8.28206 20.3281 9.74219 18.868 9.74219 17.0703H8.24219ZM6.48438 18.8281V17.3281H2.92969V18.8281V20.3281H6.48438V18.8281ZM2.92969 18.8281V17.3281C2.78886 17.3281 2.67188 17.2111 2.67188 17.0703H1.17188H-0.328125C-0.328125 18.868 1.132 20.3281 2.92969 20.3281V18.8281ZM1.17188 17.0703H2.67188V13.5156H1.17188H-0.328125V17.0703H1.17188ZM1.17188 13.5156H2.67188C2.67188 13.3748 2.78886 13.2578 2.92969 13.2578V11.7578V10.2578C1.132 10.2578 -0.328125 11.7179 -0.328125 13.5156H1.17188ZM2.92969 11.7578V13.2578H6.48438V11.7578V10.2578H2.92969V11.7578ZM6.48438 11.7578V13.2578C7.5278 13.2578 8.5202 13.0199 9.40664 12.5946L8.75781 11.2422L8.10899 9.88977C7.61793 10.1254 7.06806 10.2578 6.48438 10.2578V11.7578ZM8.75781 11.2422L7.4054 10.5934C6.98013 11.4798 6.74219 12.4722 6.74219 13.5156H8.24219H9.74219C9.74219 12.9319 9.87464 12.3821 10.1102 11.891L8.75781 11.2422ZM18.8281 6.48438H17.3281C17.3281 6.62521 17.2111 6.74219 17.0703 6.74219V8.24219V9.74219C18.868 9.74219 20.3281 8.28206 20.3281 6.48438H18.8281ZM17.0703 8.24219V6.74219H13.5156V8.24219V9.74219H17.0703V8.24219ZM13.5156 8.24219V6.74219C12.4722 6.74219 11.4798 6.98013 10.5934 7.4054L11.2422 8.75781L11.891 10.1102C12.3821 9.87464 12.9319 9.74219 13.5156 9.74219V8.24219ZM11.2422 8.75781L12.5946 9.40664C13.0199 8.5202 13.2578 7.5278 13.2578 6.48438H11.7578H10.2578C10.2578 7.06806 10.1254 7.61793 9.88977 8.10899L11.2422 8.75781ZM11.7578 6.48438H13.2578V2.92969H11.7578H10.2578V6.48438H11.7578ZM11.7578 2.92969H13.2578C13.2578 2.78886 13.3748 2.67188 13.5156 2.67188V1.17188V-0.328125C11.7179 -0.328125 10.2578 1.132 10.2578 2.92969H11.7578ZM13.5156 1.17188V2.67188H17.0703V1.17188V-0.328125H13.5156V1.17188ZM17.0703 1.17188V2.67188C17.2111 2.67188 17.3281 2.78886 17.3281 2.92969H18.8281H20.3281C20.3281 1.132 18.868 -0.328125 17.0703 -0.328125V1.17188ZM18.8281 2.92969H17.3281V6.48438H18.8281H20.3281V2.92969H18.8281Z" fill="black" mask="url(#path-5-inside-3_1486_940)"/>
</g>
<defs>
<clipPath id="clip0_1486_940">
<rect width="20" height="20" fill="white"/>
</clipPath>
</defs>
</svg>
