<svg width="24" height="24" viewBox="0 0 24 24" fill="none" xmlns="http://www.w3.org/2000/svg">
<mask id="path-1-inside-1_1486_754" fill="white">
<path d="M18.8349 13.4074V7.50069C18.8323 7.06373 18.6649 6.64522 18.3687 6.33475L13.6957 1.48398C13.3966 1.17649 12.9934 1.00276 12.5725 1H5.58946C5.16791 1 4.76362 1.17383 4.46554 1.48325C4.16746 1.79267 4 2.21234 4 2.64992V19.1491C4 19.5867 4.16746 20.0064 4.46554 20.3158C4.76362 20.6252 5.16791 20.7991 5.58946 20.7991H13.2824C13.7002 21.4501 14.2609 21.9888 14.9184 22.3708C15.576 22.7529 16.3116 22.9673 17.0646 22.9966C17.8176 23.0258 18.5665 22.8689 19.2497 22.5388C19.9329 22.2088 20.5308 21.715 20.9942 21.0982C21.4575 20.4813 21.7731 19.759 21.915 18.9908C22.0568 18.2226 22.0208 17.4303 21.81 16.6794C21.5991 15.9284 21.2195 15.2402 20.7022 14.6713C20.185 14.1024 19.545 13.6693 18.8349 13.4074ZM17.0229 6.49974H14.0666C13.926 6.49974 13.7913 6.4418 13.6919 6.33866C13.5926 6.23552 13.5367 6.09563 13.5367 5.94977V2.88091L17.0229 6.49974ZM5.58946 19.6991C5.44894 19.6991 5.31418 19.6412 5.21482 19.538C5.11546 19.4349 5.05964 19.295 5.05964 19.1491V2.64992C5.05964 2.50406 5.11546 2.36417 5.21482 2.26103C5.31418 2.15789 5.44894 2.09995 5.58946 2.09995H12.4771V5.94977C12.4771 6.38735 12.6446 6.80702 12.9426 7.11644C13.2407 7.42586 13.645 7.59969 14.0666 7.59969H17.7753V13.1544C17.5999 13.1252 17.423 13.1068 17.2455 13.0994C15.9817 13.1023 14.7705 13.6248 13.8768 14.5524C12.9832 15.48 12.4799 16.7373 12.4771 18.0492C12.4825 18.6129 12.5829 19.1713 12.7738 19.6991H5.58946ZM17.2455 21.899C16.512 21.899 15.7949 21.6732 15.185 21.2502C14.5751 20.8272 14.0998 20.2259 13.819 19.5225C13.5383 18.819 13.4649 18.0449 13.608 17.2981C13.7511 16.5513 14.1043 15.8654 14.623 15.327C15.1417 14.7886 15.8025 14.4219 16.5219 14.2733C17.2414 14.1248 17.9871 14.201 18.6647 14.4924C19.3424 14.7838 19.9216 15.2772 20.3292 15.9103C20.7367 16.5434 20.9542 17.2878 20.9542 18.0492C20.9542 19.0702 20.5635 20.0494 19.8679 20.7714C19.1724 21.4934 18.2291 21.899 17.2455 21.899Z"/>
</mask>
<path d="M18.8349 13.4074V7.50069C18.8323 7.06373 18.6649 6.64522 18.3687 6.33475L13.6957 1.48398C13.3966 1.17649 12.9934 1.00276 12.5725 1H5.58946C5.16791 1 4.76362 1.17383 4.46554 1.48325C4.16746 1.79267 4 2.21234 4 2.64992V19.1491C4 19.5867 4.16746 20.0064 4.46554 20.3158C4.76362 20.6252 5.16791 20.7991 5.58946 20.7991H13.2824C13.7002 21.4501 14.2609 21.9888 14.9184 22.3708C15.576 22.7529 16.3116 22.9673 17.0646 22.9966C17.8176 23.0258 18.5665 22.8689 19.2497 22.5388C19.9329 22.2088 20.5308 21.715 20.9942 21.0982C21.4575 20.4813 21.7731 19.759 21.915 18.9908C22.0568 18.2226 22.0208 17.4303 21.81 16.6794C21.5991 15.9284 21.2195 15.2402 20.7022 14.6713C20.185 14.1024 19.545 13.6693 18.8349 13.4074ZM17.0229 6.49974H14.0666C13.926 6.49974 13.7913 6.4418 13.6919 6.33866C13.5926 6.23552 13.5367 6.09563 13.5367 5.94977V2.88091L17.0229 6.49974ZM5.58946 19.6991C5.44894 19.6991 5.31418 19.6412 5.21482 19.538C5.11546 19.4349 5.05964 19.295 5.05964 19.1491V2.64992C5.05964 2.50406 5.11546 2.36417 5.21482 2.26103C5.31418 2.15789 5.44894 2.09995 5.58946 2.09995H12.4771V5.94977C12.4771 6.38735 12.6446 6.80702 12.9426 7.11644C13.2407 7.42586 13.645 7.59969 14.0666 7.59969H17.7753V13.1544C17.5999 13.1252 17.423 13.1068 17.2455 13.0994C15.9817 13.1023 14.7705 13.6248 13.8768 14.5524C12.9832 15.48 12.4799 16.7373 12.4771 18.0492C12.4825 18.6129 12.5829 19.1713 12.7738 19.6991H5.58946ZM17.2455 21.899C16.512 21.899 15.7949 21.6732 15.185 21.2502C14.5751 20.8272 14.0998 20.2259 13.819 19.5225C13.5383 18.819 13.4649 18.0449 13.608 17.2981C13.7511 16.5513 14.1043 15.8654 14.623 15.327C15.1417 14.7886 15.8025 14.4219 16.5219 14.2733C17.2414 14.1248 17.9871 14.201 18.6647 14.4924C19.3424 14.7838 19.9216 15.2772 20.3292 15.9103C20.7367 16.5434 20.9542 17.2878 20.9542 18.0492C20.9542 19.0702 20.5635 20.0494 19.8679 20.7714C19.1724 21.4934 18.2291 21.899 17.2455 21.899Z" fill="black"/>
<path d="M18.8349 13.4074H17.3349V14.453L18.3159 14.8148L18.8349 13.4074ZM18.8349 7.50069H20.335L20.3349 7.49156L18.8349 7.50069ZM18.3687 6.33475L19.454 5.29927L19.449 5.29407L18.3687 6.33475ZM13.6957 1.48398L14.776 0.443284L14.7709 0.438105L13.6957 1.48398ZM12.5725 1L12.5823 -0.5H12.5725V1ZM13.2824 20.7991L14.5449 19.989L14.1022 19.2991H13.2824V20.7991ZM17.0229 6.49974V7.99974H20.5508L18.1032 5.45906L17.0229 6.49974ZM13.5367 2.88091L14.617 1.84023L12.0367 -0.838197V2.88091H13.5367ZM5.58946 2.09995V3.59995V2.09995ZM12.4771 2.09995H13.9771V0.599948H12.4771V2.09995ZM17.7753 7.59969H19.2753V6.09969H17.7753V7.59969ZM17.7753 13.1544L17.5288 14.634L19.2753 14.9249V13.1544H17.7753ZM17.2455 13.0994L17.3081 11.6007L17.2751 11.5994L17.242 11.5994L17.2455 13.0994ZM12.4771 18.0492L10.9771 18.046L10.9771 18.0547L10.9772 18.0634L12.4771 18.0492ZM12.7738 19.6991V21.1991H14.9116L14.1843 19.1888L12.7738 19.6991ZM18.8349 13.4074H20.3349V7.50069H18.8349H17.3349V13.4074H18.8349ZM18.8349 7.50069L20.3349 7.49156C20.33 6.67991 20.0195 5.89206 19.454 5.29928L18.3687 6.33475L17.2834 7.37021C17.3103 7.39838 17.3346 7.44756 17.335 7.50983L18.8349 7.50069ZM18.3687 6.33475L19.449 5.29407L14.776 0.443296L13.6957 1.48398L12.6154 2.52466L17.2884 7.37543L18.3687 6.33475ZM13.6957 1.48398L14.7709 0.438105C14.1978 -0.15112 13.4134 -0.494514 12.5823 -0.499968L12.5725 1L12.5626 2.49997C12.5735 2.50004 12.5954 2.50409 12.6204 2.52985L13.6957 1.48398ZM12.5725 1V-0.5H5.58946V1V2.5H12.5725V1ZM5.58946 1V-0.5C4.75163 -0.5 3.95997 -0.153991 3.38527 0.44257L4.46554 1.48325L5.54581 2.52393C5.55689 2.51243 5.56683 2.50657 5.57371 2.50361C5.58049 2.50069 5.58558 2.5 5.58946 2.5V1ZM4.46554 1.48325L3.38527 0.44257C2.81241 1.03723 2.5 1.83221 2.5 2.64992H4H5.5C5.5 2.59246 5.52251 2.54812 5.54581 2.52393L4.46554 1.48325ZM4 2.64992H2.5V19.1491H4H5.5V2.64992H4ZM4 19.1491H2.5C2.5 19.9669 2.81241 20.7618 3.38527 21.3565L4.46554 20.3158L5.54581 19.2751C5.52251 19.2509 5.5 19.2066 5.5 19.1491H4ZM4.46554 20.3158L3.38527 21.3565C3.95997 21.9531 4.75163 22.2991 5.58946 22.2991V20.7991V19.2991C5.58558 19.2991 5.58049 19.2984 5.57371 19.2955C5.56684 19.2925 5.55689 19.2866 5.54581 19.2751L4.46554 20.3158ZM5.58946 20.7991V22.2991H13.2824V20.7991V19.2991H5.58946V20.7991ZM13.2824 20.7991L12.02 21.6091C12.564 22.457 13.2978 23.164 14.1649 23.6678L14.9184 22.3708L15.672 21.0739C15.224 20.8135 14.8363 20.4432 14.5449 19.989L13.2824 20.7991ZM14.9184 22.3708L14.1649 23.6678C15.0323 24.1718 16.0063 24.4566 17.0065 24.4954L17.0646 22.9966L17.1227 21.4977C16.6168 21.4781 16.1197 21.334 15.672 21.0739L14.9184 22.3708ZM17.0646 22.9966L17.0065 24.4954C18.0067 24.5342 18.9995 24.3256 19.9022 23.8895L19.2497 22.5388L18.5972 21.1882C18.1336 21.4121 17.6286 21.5173 17.1227 21.4977L17.0646 22.9966ZM19.2497 22.5388L19.9022 23.8895C20.8047 23.4535 21.5889 22.804 22.1935 21.9991L20.9942 21.0982L19.7949 20.1972C19.4728 20.626 19.0611 20.9641 18.5972 21.1882L19.2497 22.5388ZM20.9942 21.0982L22.1935 21.9991C22.7979 21.1944 23.2067 20.2564 23.39 19.2631L21.915 18.9908L20.4399 18.7185C20.3396 19.2617 20.1171 19.7682 19.7949 20.1972L20.9942 21.0982ZM21.915 18.9908L23.39 19.2631C23.5734 18.2699 23.527 17.2458 23.2541 16.2739L21.81 16.6794L20.3658 17.0848C20.5146 17.6148 20.5402 18.1752 20.4399 18.7185L21.915 18.9908ZM21.81 16.6794L23.2541 16.2739C22.9812 15.3019 22.4885 14.4061 21.812 13.6622L20.7022 14.6713L19.5924 15.6804C19.9504 16.0742 20.217 16.5549 20.3658 17.0848L21.81 16.6794ZM20.7022 14.6713L21.812 13.6622C21.1354 12.918 20.2938 12.3466 19.3539 12.0001L18.8349 13.4074L18.3159 14.8148C18.7962 14.9919 19.2346 15.2869 19.5924 15.6804L20.7022 14.6713ZM17.0229 6.49974V4.99974H14.0666V6.49974V7.99974H17.0229V6.49974ZM14.0666 6.49974V4.99974C14.3423 4.99974 14.5949 5.11397 14.7722 5.29797L13.6919 6.33866L12.6116 7.37934C12.9876 7.76962 13.5098 7.99974 14.0666 7.99974V6.49974ZM13.6919 6.33866L14.7722 5.29797C14.9476 5.48007 15.0367 5.7155 15.0367 5.94977H13.5367H12.0367C12.0367 6.47575 12.2375 6.99096 12.6116 7.37934L13.6919 6.33866ZM13.5367 5.94977H15.0367V2.88091H13.5367H12.0367V5.94977H13.5367ZM13.5367 2.88091L12.4565 3.92159L15.9427 7.54042L17.0229 6.49974L18.1032 5.45906L14.617 1.84023L13.5367 2.88091ZM5.58946 19.6991V18.1991C5.86522 18.1991 6.11783 18.3133 6.29509 18.4973L5.21482 19.538L4.13455 20.5787C4.51053 20.969 5.03266 21.1991 5.58946 21.1991V19.6991ZM5.21482 19.538L6.29509 18.4973C6.47051 18.6794 6.55964 18.9149 6.55964 19.1491H5.05964H3.55964C3.55964 19.6751 3.7604 20.1903 4.13455 20.5787L5.21482 19.538ZM5.05964 19.1491H6.55964V2.64992H5.05964H3.55964V19.1491H5.05964ZM5.05964 2.64992H6.55964C6.55964 2.88419 6.47051 3.11962 6.29509 3.30171L5.21482 2.26103L4.13455 1.22035C3.76041 1.60873 3.55964 2.12393 3.55964 2.64992H5.05964ZM5.21482 2.26103L6.29509 3.30171C6.11783 3.48571 5.86522 3.59995 5.58946 3.59995L5.58946 2.09995V0.599948C5.03266 0.599948 4.51053 0.83007 4.13455 1.22035L5.21482 2.26103ZM5.58946 2.09995V3.59995H12.4771V2.09995V0.599948H5.58946V2.09995ZM12.4771 2.09995H10.9771V5.94977H12.4771H13.9771V2.09995H12.4771ZM12.4771 5.94977H10.9771C10.9771 6.76748 11.2895 7.56246 11.8624 8.15712L12.9426 7.11644L14.0229 6.07576C13.9996 6.05157 13.9771 6.00722 13.9771 5.94977H12.4771ZM12.9426 7.11644L11.8624 8.15712C12.4371 8.75368 13.2287 9.09969 14.0666 9.09969V7.59969V6.09969C14.0627 6.09969 14.0576 6.09899 14.0508 6.09608C14.0439 6.09312 14.034 6.08726 14.0229 6.07576L12.9426 7.11644ZM14.0666 7.59969V9.09969H17.7753V7.59969V6.09969H14.0666V7.59969ZM17.7753 7.59969H16.2753V13.1544H17.7753H19.2753V7.59969H17.7753ZM17.7753 13.1544L18.0217 11.6748C17.7856 11.6355 17.5473 11.6107 17.3081 11.6007L17.2455 13.0994L17.1828 14.5981C17.2987 14.603 17.4142 14.6149 17.5288 14.634L17.7753 13.1544ZM17.2455 13.0994L17.242 11.5994C15.5632 11.6033 13.966 12.2978 12.7965 13.5117L13.8768 14.5524L14.9571 15.5931C15.5749 14.9517 16.4002 14.6014 17.2489 14.5994L17.2455 13.0994ZM13.8768 14.5524L12.7965 13.5117C11.6289 14.7238 10.9807 16.3551 10.9771 18.046L12.4771 18.0492L13.9771 18.0524C13.9791 17.1196 14.3374 16.2363 14.9571 15.5931L13.8768 14.5524ZM12.4771 18.0492L10.9772 18.0634C10.9841 18.7956 11.1145 19.5218 11.3633 20.2094L12.7738 19.6991L14.1843 19.1888C14.0512 18.8209 13.9808 18.4303 13.977 18.0349L12.4771 18.0492ZM12.7738 19.6991V18.1991H5.58946V19.6991V21.1991H12.7738V19.6991ZM17.2455 21.899V20.399C16.8214 20.399 16.4019 20.2687 16.0399 20.0177L15.185 21.2502L14.3301 22.4827C15.1879 23.0777 16.2025 23.399 17.2455 23.399V21.899ZM15.185 21.2502L16.0399 20.0177C15.6771 19.766 15.3862 19.4024 15.2122 18.9665L13.819 19.5225L12.4259 20.0784C12.8133 21.0494 13.4731 21.8883 14.3301 22.4827L15.185 21.2502ZM13.819 19.5225L15.2122 18.9665C15.0381 18.5302 14.9918 18.0471 15.0812 17.5804L13.608 17.2981L12.1348 17.0158C11.938 18.0428 12.0386 19.1078 12.4259 20.0784L13.819 19.5225ZM13.608 17.2981L15.0812 17.5804C15.1706 17.114 15.3899 16.6929 15.7033 16.3676L14.623 15.327L13.5427 14.2863C12.8187 15.0378 12.3316 15.9887 12.1348 17.0158L13.608 17.2981ZM14.623 15.327L15.7033 16.3676C16.016 16.043 16.4076 15.8286 16.8253 15.7424L16.5219 14.2733L16.2186 12.8043C15.1974 13.0152 14.2673 13.5341 13.5427 14.2863L14.623 15.327ZM16.5219 14.2733L16.8253 15.7424C17.2424 15.6562 17.6755 15.6999 18.0722 15.8704L18.6647 14.4924L19.2572 13.1144C18.2986 12.7022 17.2403 12.5934 16.2186 12.8043L16.5219 14.2733ZM18.6647 14.4924L18.0722 15.8704C18.4696 16.0413 18.8184 16.3347 19.0679 16.7222L20.3292 15.9103L21.5905 15.0985C21.0249 14.2198 20.2152 13.5263 19.2572 13.1144L18.6647 14.4924ZM20.3292 15.9103L19.0679 16.7222C19.3177 17.1103 19.4542 17.5722 19.4542 18.0492H20.9542H22.4542C22.4542 17.0033 22.1557 15.9766 21.5905 15.0985L20.3292 15.9103ZM20.9542 18.0492H19.4542C19.4542 18.6901 19.2084 19.294 18.7877 19.7307L19.8679 20.7714L20.9482 21.8121C21.9185 20.8049 22.4542 19.4504 22.4542 18.0492H20.9542ZM19.8679 20.7714L18.7877 19.7307C18.3688 20.1656 17.8128 20.399 17.2455 20.399V21.899V23.399C18.6454 23.399 19.9761 22.8212 20.9482 21.8121L19.8679 20.7714Z" fill="black" mask="url(#path-1-inside-1_1486_754)"/>
<path d="M19 17.5H17.5V16C17.5 15.8674 17.4473 15.7402 17.3536 15.6464C17.2598 15.5527 17.1326 15.5 17 15.5C16.8674 15.5 16.7402 15.5527 16.6464 15.6464C16.5527 15.7402 16.5 15.8674 16.5 16V17.5H15C14.8674 17.5 14.7402 17.5527 14.6464 17.6464C14.5527 17.7402 14.5 17.8674 14.5 18C14.5 18.1326 14.5527 18.2598 14.6464 18.3536C14.7402 18.4473 14.8674 18.5 15 18.5H16.5V20C16.5 20.1326 16.5527 20.2598 16.6464 20.3536C16.7402 20.4473 16.8674 20.5 17 20.5C17.1326 20.5 17.2598 20.4473 17.3536 20.3536C17.4473 20.2598 17.5 20.1326 17.5 20V18.5H19C19.1326 18.5 19.2598 18.4473 19.3536 18.3536C19.4473 18.2598 19.5 18.1326 19.5 18C19.5 17.8674 19.4473 17.7402 19.3536 17.6464C19.2598 17.5527 19.1326 17.5 19 17.5Z" fill="black"/>
</svg>
