<svg width="19" height="20" viewBox="0 0 19 20" fill="none" xmlns="http://www.w3.org/2000/svg">
<path d="M15.3735 9.80273H12.666C12.3414 9.80273 12.0723 9.53357 12.0723 9.20898V3.67523C12.0723 3.0894 12.3018 2.54315 12.7135 2.13148C13.1252 1.71982 13.6714 1.49023 14.2573 1.49023H14.2652C15.2548 1.49815 16.1889 1.88607 16.9014 2.59065C17.6139 3.31107 18.0018 4.26107 18.0018 5.25065V7.16648C18.0098 8.7419 16.9489 9.80273 15.3735 9.80273ZM13.2598 8.61523H15.3735C16.2918 8.61523 16.8223 8.08482 16.8223 7.16648V5.25065C16.8223 4.56982 16.5531 3.92065 16.0702 3.42982C15.5873 2.95482 14.9381 2.68565 14.2652 2.67773C14.2652 2.67773 14.2652 2.67773 14.2573 2.67773C13.996 2.67773 13.7427 2.78065 13.5527 2.97065C13.3627 3.16065 13.2598 3.40607 13.2598 3.67523V8.61523Z" fill="black"/>
<path d="M7.12467 18.9702C6.75259 18.9702 6.40426 18.8277 6.14301 18.5586L4.82884 17.2365C4.75759 17.1652 4.64676 17.1573 4.56759 17.2207L3.20592 18.234C2.78634 18.5506 2.23217 18.6061 1.75717 18.3686C1.28217 18.1311 0.989258 17.6561 0.989258 17.1257V5.25065C0.989258 2.85982 2.35884 1.49023 4.74967 1.49023H14.2497C14.5743 1.49023 14.8434 1.7594 14.8434 2.08398C14.8434 2.40857 14.5743 2.67773 14.2497 2.67773C13.7034 2.67773 13.2601 3.12107 13.2601 3.66732V17.1257C13.2601 17.6561 12.9672 18.1311 12.4922 18.3686C12.0172 18.6061 11.463 18.5586 11.0434 18.2419L9.68967 17.2286C9.61051 17.1652 9.49967 17.1811 9.43634 17.2444L8.10634 18.5744C7.84509 18.8277 7.49676 18.9702 7.12467 18.9702ZM4.67842 15.9936C5.04259 15.9936 5.39884 16.1281 5.66801 16.4052L6.98217 17.7273C7.02967 17.7748 7.09301 17.7827 7.12467 17.7827C7.15634 17.7827 7.21967 17.7748 7.26717 17.7273L8.59717 16.3973C9.08801 15.9065 9.86384 15.859 10.4101 16.2786L11.7559 17.284C11.843 17.3473 11.9222 17.3236 11.9618 17.2998C12.0013 17.2761 12.0726 17.2286 12.0726 17.1257V3.66732C12.0726 3.31107 12.1597 2.97065 12.3101 2.67773H4.74967C2.99217 2.67773 2.17676 3.49315 2.17676 5.25065V17.1257C2.17676 17.2365 2.24801 17.284 2.28759 17.3077C2.33509 17.3315 2.41426 17.3473 2.49342 17.284L3.84717 16.2706C4.09259 16.0886 4.38551 15.9936 4.67842 15.9936Z" fill="black"/>
<path d="M9.5 11.3945H7.125C6.80042 11.3945 6.53125 11.1254 6.53125 10.8008C6.53125 10.4762 6.80042 10.207 7.125 10.207H9.5C9.82458 10.207 10.0938 10.4762 10.0938 10.8008C10.0938 11.1254 9.82458 11.3945 9.5 11.3945Z" fill="black"/>
<path d="M9.5 8.22656H7.125C6.80042 8.22656 6.53125 7.9574 6.53125 7.63281C6.53125 7.30823 6.80042 7.03906 7.125 7.03906H9.5C9.82458 7.03906 10.0938 7.30823 10.0938 7.63281C10.0938 7.9574 9.82458 8.22656 9.5 8.22656Z" fill="black"/>
<path d="M4.72624 8.42512C4.29082 8.42512 3.93457 8.06888 3.93457 7.63346C3.93457 7.19805 4.29082 6.8418 4.72624 6.8418C5.16165 6.8418 5.5179 7.19805 5.5179 7.63346C5.5179 8.06888 5.16165 8.42512 4.72624 8.42512Z" fill="black"/>
<path d="M4.72624 11.5911C4.29082 11.5911 3.93457 11.2349 3.93457 10.7995C3.93457 10.3641 4.29082 10.0078 4.72624 10.0078C5.16165 10.0078 5.5179 10.3641 5.5179 10.7995C5.5179 11.2349 5.16165 11.5911 4.72624 11.5911Z" fill="black"/>
</svg>
