<svg width="19" height="20" viewBox="0 0 19 20" fill="none" xmlns="http://www.w3.org/2000/svg">
<path d="M17.3158 9.15342L9.65747 16.8118C8.71926 17.75 7.44679 18.277 6.11997 18.277C4.79315 18.277 3.52067 17.75 2.58247 16.8118C1.64426 15.8735 1.11719 14.6011 1.11719 13.2743C1.11719 11.9474 1.64426 10.675 2.58247 9.73675L10.2408 2.07842C10.8663 1.45295 11.7146 1.10156 12.5991 1.10156C13.4837 1.10156 14.332 1.45295 14.9575 2.07842C15.5829 2.70389 15.9343 3.5522 15.9343 4.43675C15.9343 5.3213 15.5829 6.16961 14.9575 6.79508L7.2908 14.4534C6.97807 14.7662 6.55391 14.9418 6.11163 14.9418C5.66936 14.9418 5.2452 14.7662 4.93247 14.4534C4.61973 14.1407 4.44404 13.7165 4.44404 13.2743C4.44404 12.832 4.61973 12.4078 4.93247 12.0951L12.0075 5.02842" stroke="black" stroke-width="1.5" stroke-linecap="round" stroke-linejoin="round"/>
</svg>
