<?xml version="1.0" encoding="UTF-8"?>
<svg version="1.1" xmlns="http://www.w3.org/2000/svg" width="207" height="168">
<path d="M0 0 C68.31 0 136.62 0 207 0 C207 55.44 207 110.88 207 168 C138.69 168 70.38 168 0 168 C0 112.56 0 57.12 0 0 Z " fill="#FDFDFE" transform="translate(0,0)"/>
<path d="M0 0 C1.40668945 -0.01160156 1.40668945 -0.01160156 2.84179688 -0.0234375 C17.72529906 0.01793429 31.16694655 5.27467622 42.328125 15.28125 C51.42236017 24.86143666 55.51465437 35.41933123 55.40625 48.44140625 C54.5475745 57.95514044 50.34342381 66.18396072 44.0625 73.25 C43.60875 73.83007812 43.155 74.41015625 42.6875 75.0078125 C34.91853408 84.03114271 19.84430175 90.45465023 8.15283203 91.40527344 C-8.69126814 92.35923371 -24.39109682 89.15893267 -37.375 77.75 C-38.91590809 76.27062977 -40.43953559 74.77283836 -41.9375 73.25 C-42.45054688 72.73566406 -42.96359375 72.22132813 -43.4921875 71.69140625 C-48.84433697 65.82398773 -52.52759488 58.17483227 -52.9375 50.25 C-52.999375 49.35539062 -53.06125 48.46078125 -53.125 47.5390625 C-53.63582015 35.11974772 -49.14175801 25.02660654 -40.8203125 15.9375 C-29.38155063 4.83627537 -15.78895385 -0.1296834 0 0 Z " fill="#0D1992" transform="translate(89.9375,66.75)"/>
<path d="M0 0 C33 0 66 0 100 0 C100 26.07 100 52.14 100 79 C87.13 79 74.26 79 61 79 C59.02 75.04 57.04 71.08 55 67 C43.82104865 51.08420486 26.83833073 42.08383393 8 38 C4.04 37.505 4.04 37.505 0 37 C0 24.79 0 12.58 0 0 Z " fill="#0C1892" transform="translate(95,18)"/>
</svg>
