<svg width="37" height="39" viewBox="0 0 37 39" fill="none" xmlns="http://www.w3.org/2000/svg">
<path d="M10.5017 11.7959C11.031 11.7959 11.5387 12.0413 11.9131 12.4783C12.2874 12.9152 12.4977 13.5078 12.4977 14.1257V17.7546H13.6014C13.7706 17.404 14.0164 17.112 14.3136 16.9083C14.6109 16.7046 14.9492 16.5966 15.2939 16.5951C18.1104 16.3705 18.1104 21.4253 15.2939 21.201C14.9494 21.1985 14.6115 21.09 14.3143 20.8864C14.0172 20.6829 13.7713 20.3914 13.6014 20.0415H12.4977V23.7456C12.4965 24.0525 12.4433 24.356 12.3413 24.6389C12.2393 24.9217 12.0905 25.1782 11.9033 25.3937C11.7161 25.6092 11.4943 25.7794 11.2506 25.8945C11.0069 26.0097 10.7462 26.0675 10.4833 26.0647H1V11.7422L5.40591 11.7851V12.3327C5.00575 12.6012 4.67291 12.9875 4.44059 13.4531C4.20826 13.9186 4.08457 14.4471 4.08185 14.9859C4.07913 15.5247 4.19749 16.0548 4.4251 16.5235C4.65271 16.9923 4.98163 17.3831 5.37905 17.6571C5.77647 17.9311 6.22849 18.0787 6.69003 18.0852C7.15157 18.0917 7.6065 17.9567 8.00943 17.6939C8.41236 17.4311 8.74921 17.0496 8.98638 16.5874C9.22355 16.1252 9.35276 15.5984 9.3611 15.0598C9.37166 14.5182 9.26097 13.9827 9.03997 13.5063C8.81897 13.0299 8.49531 12.6291 8.10096 12.3434V11.7959H10.5017Z" stroke="#2F7FFC" stroke-linecap="round" stroke-linejoin="round"/>
<path d="M20.0421 13.3297C19.7343 13.532 19.4794 13.8281 19.3045 14.1866C19.1297 14.545 19.0415 14.9521 19.0494 15.3646C19.0498 15.7761 19.1429 16.1802 19.3195 16.5363C19.496 16.8924 19.7496 17.188 20.0549 17.3932C20.3602 17.5985 20.7064 17.7062 21.0587 17.7056C21.4109 17.705 21.7568 17.5961 22.0616 17.3898C22.3664 17.1835 22.6193 16.887 22.7949 16.5303C22.9705 16.1736 23.0626 15.7692 23.062 15.3577C23.0614 14.9462 22.9681 14.5421 22.7914 14.1861C22.6147 13.8301 22.3609 13.5347 22.0555 13.3297V12.0606L24.9118 12.0169C25.4379 12.0252 25.9407 12.2716 26.3144 12.7041C26.6882 13.1367 26.9038 13.7217 26.9159 14.3362V17.673H27.6744C27.9098 17.2034 28.2463 16.8139 28.6505 16.5433C29.0546 16.2727 29.5123 16.1304 29.9782 16.1304H29.9969C30.467 16.1283 30.9293 16.2708 31.3374 16.5435C31.7454 16.8163 32.0848 17.2097 32.3215 17.6843C32.5581 18.1588 32.6837 18.6978 32.6856 19.247C32.6874 19.7962 32.5655 20.3363 32.332 20.813C32.0986 21.2897 31.7618 21.6863 31.3556 21.9628C30.9494 22.2393 30.4881 22.386 30.0179 22.3882C29.5478 22.3904 29.0855 22.248 28.6774 21.9753C28.2693 21.7026 27.9299 21.3092 27.6931 20.8347H26.9159V24.1824C26.9159 24.8102 26.703 25.4124 26.324 25.8573C25.9449 26.3022 25.4304 26.5536 24.893 26.5565H15.2191V35.9323C15.2191 36.2038 15.2649 36.4727 15.3539 36.7236C15.4428 36.9744 15.5732 37.2024 15.7376 37.3944C15.9019 37.5864 16.097 37.7387 16.3118 37.8426C16.5265 37.9465 16.7567 38 16.9891 38H34.2392C34.7062 37.9943 35.1526 37.7742 35.482 37.3874C35.8114 37.0005 35.9973 36.4779 35.9998 35.9323V3.11147C36.0035 2.83758 35.9608 2.56553 35.8742 2.31097C35.7877 2.05641 35.6589 1.82434 35.4952 1.62812C35.3316 1.43191 35.1364 1.2754 34.9209 1.1676C34.7053 1.05981 34.4736 1.00285 34.2392 1H16.9891C16.7535 0.999938 16.5202 1.05484 16.303 1.16147C16.0858 1.26811 15.889 1.42434 15.7241 1.62101C15.5593 1.81767 15.4297 2.05081 15.343 2.30675C15.2563 2.56269 15.2142 2.83628 15.2191 3.11147V12.0059H20.0421V13.3297Z" stroke="#2F7FFC" stroke-linecap="round" stroke-linejoin="round"/>
</svg>
