<svg width="22" height="22" viewBox="0 0 22 22" fill="none" xmlns="http://www.w3.org/2000/svg">
<mask id="path-1-inside-1_1486_749" fill="white">
<path d="M19.4711 8.57726V7.02148C19.4697 6.6244 19.3398 6.23843 19.1007 5.92134C18.8617 5.60425 18.5264 5.37308 18.1451 5.26243V3.70668C18.1445 3.21847 17.9503 2.75043 17.6051 2.40522C17.2599 2.06001 16.7918 1.86581 16.3036 1.86523H5.69638C5.20818 1.86581 4.74013 2.06001 4.39492 2.40522C4.04971 2.75043 3.85551 3.21847 3.85494 3.70668V5.26243C3.47357 5.37308 3.1383 5.60425 2.89927 5.92134C2.66024 6.23843 2.53032 6.6244 2.52894 7.02148V8.57726C2.14764 8.68792 1.81242 8.91908 1.57343 9.23613C1.33444 9.55318 1.20453 9.93909 1.20312 10.3361V18.2916C1.2037 18.7798 1.3979 19.2478 1.74311 19.593C2.08832 19.9382 2.55637 20.1324 3.04457 20.133H18.9554C19.4436 20.1324 19.9117 19.9382 20.2569 19.593C20.6021 19.2478 20.7963 18.7798 20.7969 18.2916V10.3361C20.7955 9.93909 20.6656 9.55318 20.4266 9.23613C20.1876 8.91908 19.8524 8.68792 19.4711 8.57726ZM5.69638 2.89648H16.3036C16.5184 2.89671 16.7244 2.98214 16.8763 3.13403C17.0282 3.28592 17.1136 3.49187 17.1138 3.70668V5.17987H4.88619V3.70668C4.88641 3.49187 4.97184 3.28592 5.12373 3.13403C5.27562 2.98214 5.48157 2.89671 5.69638 2.89648ZM4.37056 6.21112H17.6294C17.8443 6.21137 18.0503 6.29683 18.2022 6.44875C18.3541 6.60067 18.4396 6.80664 18.4398 7.02148V8.49468H15.6873C15.3841 8.49434 15.0855 8.56904 14.8181 8.7121C14.5508 8.85516 14.323 9.06215 14.155 9.31461L13.6164 10.1226C13.5425 10.2337 13.4423 10.3248 13.3246 10.3878C13.207 10.4508 13.0756 10.4836 12.9422 10.4835H9.05785C8.92441 10.4836 8.79302 10.4508 8.67537 10.3878C8.55773 10.3248 8.4575 10.2337 8.38361 10.1226L7.84499 9.31461C7.67704 9.06215 7.44923 8.85516 7.18188 8.7121C6.91453 8.56904 6.61594 8.49434 6.31271 8.49468H3.56019V7.02148C3.56045 6.80664 3.64591 6.60067 3.79783 6.44875C3.94974 6.29683 4.15572 6.21137 4.37056 6.21112ZM19.7656 18.2916C19.7654 18.5064 19.68 18.7123 19.5281 18.8642C19.3762 19.0161 19.1702 19.1015 18.9554 19.1017H3.04457C2.82976 19.1015 2.62381 19.0161 2.47192 18.8642C2.32003 18.7123 2.2346 18.5064 2.23438 18.2916V10.3361C2.2346 10.1213 2.32003 9.91536 2.47192 9.76347C2.62381 9.61158 2.82976 9.52615 3.04457 9.52593H6.31271C6.44614 9.52575 6.57753 9.55859 6.69517 9.62153C6.81281 9.68447 6.91305 9.77554 6.98695 9.88663L7.52557 10.6946C7.6935 10.9471 7.92129 11.1542 8.18865 11.2973C8.456 11.4403 8.75461 11.5151 9.05785 11.5147H12.9422C13.2454 11.5151 13.544 11.4403 13.8114 11.2973C14.0787 11.1542 14.3065 10.9471 14.4744 10.6946L15.013 9.88663C15.0869 9.77554 15.1872 9.68447 15.3048 9.62153C15.4225 9.55859 15.5539 9.52575 15.6873 9.52593H18.9554C19.1702 9.52615 19.3762 9.61158 19.5281 9.76347C19.68 9.91536 19.7654 10.1213 19.7656 10.3361V18.2916Z"/>
</mask>
<path d="M19.4711 8.57726V7.02148C19.4697 6.6244 19.3398 6.23843 19.1007 5.92134C18.8617 5.60425 18.5264 5.37308 18.1451 5.26243V3.70668C18.1445 3.21847 17.9503 2.75043 17.6051 2.40522C17.2599 2.06001 16.7918 1.86581 16.3036 1.86523H5.69638C5.20818 1.86581 4.74013 2.06001 4.39492 2.40522C4.04971 2.75043 3.85551 3.21847 3.85494 3.70668V5.26243C3.47357 5.37308 3.1383 5.60425 2.89927 5.92134C2.66024 6.23843 2.53032 6.6244 2.52894 7.02148V8.57726C2.14764 8.68792 1.81242 8.91908 1.57343 9.23613C1.33444 9.55318 1.20453 9.93909 1.20312 10.3361V18.2916C1.2037 18.7798 1.3979 19.2478 1.74311 19.593C2.08832 19.9382 2.55637 20.1324 3.04457 20.133H18.9554C19.4436 20.1324 19.9117 19.9382 20.2569 19.593C20.6021 19.2478 20.7963 18.7798 20.7969 18.2916V10.3361C20.7955 9.93909 20.6656 9.55318 20.4266 9.23613C20.1876 8.91908 19.8524 8.68792 19.4711 8.57726ZM5.69638 2.89648H16.3036C16.5184 2.89671 16.7244 2.98214 16.8763 3.13403C17.0282 3.28592 17.1136 3.49187 17.1138 3.70668V5.17987H4.88619V3.70668C4.88641 3.49187 4.97184 3.28592 5.12373 3.13403C5.27562 2.98214 5.48157 2.89671 5.69638 2.89648ZM4.37056 6.21112H17.6294C17.8443 6.21137 18.0503 6.29683 18.2022 6.44875C18.3541 6.60067 18.4396 6.80664 18.4398 7.02148V8.49468H15.6873C15.3841 8.49434 15.0855 8.56904 14.8181 8.7121C14.5508 8.85516 14.323 9.06215 14.155 9.31461L13.6164 10.1226C13.5425 10.2337 13.4423 10.3248 13.3246 10.3878C13.207 10.4508 13.0756 10.4836 12.9422 10.4835H9.05785C8.92441 10.4836 8.79302 10.4508 8.67537 10.3878C8.55773 10.3248 8.4575 10.2337 8.38361 10.1226L7.84499 9.31461C7.67704 9.06215 7.44923 8.85516 7.18188 8.7121C6.91453 8.56904 6.61594 8.49434 6.31271 8.49468H3.56019V7.02148C3.56045 6.80664 3.64591 6.60067 3.79783 6.44875C3.94974 6.29683 4.15572 6.21137 4.37056 6.21112ZM19.7656 18.2916C19.7654 18.5064 19.68 18.7123 19.5281 18.8642C19.3762 19.0161 19.1702 19.1015 18.9554 19.1017H3.04457C2.82976 19.1015 2.62381 19.0161 2.47192 18.8642C2.32003 18.7123 2.2346 18.5064 2.23438 18.2916V10.3361C2.2346 10.1213 2.32003 9.91536 2.47192 9.76347C2.62381 9.61158 2.82976 9.52615 3.04457 9.52593H6.31271C6.44614 9.52575 6.57753 9.55859 6.69517 9.62153C6.81281 9.68447 6.91305 9.77554 6.98695 9.88663L7.52557 10.6946C7.6935 10.9471 7.92129 11.1542 8.18865 11.2973C8.456 11.4403 8.75461 11.5151 9.05785 11.5147H12.9422C13.2454 11.5151 13.544 11.4403 13.8114 11.2973C14.0787 11.1542 14.3065 10.9471 14.4744 10.6946L15.013 9.88663C15.0869 9.77554 15.1872 9.68447 15.3048 9.62153C15.4225 9.55859 15.5539 9.52575 15.6873 9.52593H18.9554C19.1702 9.52615 19.3762 9.61158 19.5281 9.76347C19.68 9.91536 19.7654 10.1213 19.7656 10.3361V18.2916Z" fill="black"/>
<path d="M19.4711 8.57726H17.9711V9.7038L19.0529 10.0178L19.4711 8.57726ZM19.4711 7.02148H20.9711L20.971 7.01628L19.4711 7.02148ZM18.1451 5.26243H16.6451V6.38907L17.7271 6.70302L18.1451 5.26243ZM18.1451 3.70668H19.6451L19.6451 3.70491L18.1451 3.70668ZM16.3036 1.86523L16.3054 0.365234H16.3036V1.86523ZM5.69638 1.86523V0.365233L5.69461 0.365235L5.69638 1.86523ZM3.85494 3.70668L2.35494 3.70491V3.70668H3.85494ZM3.85494 5.26243L4.27292 6.70302L5.35494 6.38907V5.26243H3.85494ZM2.52894 7.02148L1.02894 7.01628V7.02148H2.52894ZM2.52894 8.57726L2.94705 10.0178L4.02894 9.7038V8.57726H2.52894ZM1.20312 10.3361L-0.296875 10.3308V10.3361H1.20312ZM1.20312 18.2916H-0.296876L-0.296874 18.2933L1.20312 18.2916ZM3.04457 20.133L3.0428 21.633H3.04457V20.133ZM18.9554 20.133V21.633L18.9572 21.633L18.9554 20.133ZM20.7969 18.2916L22.2969 18.2933V18.2916H20.7969ZM20.7969 10.3361H22.2969L22.2969 10.3308L20.7969 10.3361ZM5.69638 2.89648V1.39648L5.69484 1.39649L5.69638 2.89648ZM16.3036 2.89648L16.3052 1.39648H16.3036V2.89648ZM17.1138 3.70668H18.6138L18.6138 3.70513L17.1138 3.70668ZM17.1138 5.17987V6.67987H18.6138V5.17987H17.1138ZM4.88619 5.17987H3.38619V6.67987H4.88619V5.17987ZM4.88619 3.70668L3.38619 3.70513V3.70668H4.88619ZM4.37056 6.21112V4.71112L4.3688 4.71112L4.37056 6.21112ZM17.6294 6.21112L17.6312 4.71112H17.6294V6.21112ZM18.4398 7.02148H19.9398L19.9398 7.01972L18.4398 7.02148ZM18.4398 8.49468V9.99468H19.9398V8.49468H18.4398ZM15.6873 8.49468L15.6856 9.99468H15.6873V8.49468ZM14.155 9.31461L15.4031 10.1466L15.4039 10.1454L14.155 9.31461ZM13.6164 10.1226L12.3683 9.29063L12.3674 9.29198L13.6164 10.1226ZM12.9422 10.4835L12.9438 8.98349H12.9422V10.4835ZM9.05785 10.4835V8.98349L9.05624 8.98349L9.05785 10.4835ZM8.38361 10.1226L9.63262 9.29198L9.63172 9.29063L8.38361 10.1226ZM7.84499 9.31461L6.5961 10.1454L6.59687 10.1466L7.84499 9.31461ZM6.31271 8.49468V9.99468L6.31436 9.99468L6.31271 8.49468ZM3.56019 8.49468H2.06019V9.99468H3.56019V8.49468ZM3.56019 7.02148L2.06019 7.01972V7.02148H3.56019ZM19.7656 18.2916L21.2656 18.2931V18.2916H19.7656ZM18.9554 19.1017V20.6017H18.957L18.9554 19.1017ZM3.04457 19.1017L3.04303 20.6017H3.04457V19.1017ZM2.23438 18.2916H0.734374L0.734376 18.2931L2.23438 18.2916ZM2.23438 10.3361L0.734375 10.3346V10.3361H2.23438ZM3.04457 9.52593V8.02593L3.04303 8.02593L3.04457 9.52593ZM6.31271 9.52593V11.0259L6.31469 11.0259L6.31271 9.52593ZM6.98695 9.88663L5.73805 10.7174L5.73884 10.7186L6.98695 9.88663ZM7.52557 10.6946L8.77457 9.86398L8.77369 9.86265L7.52557 10.6946ZM9.05785 11.5147V10.0147L9.05626 10.0147L9.05785 11.5147ZM12.9422 11.5147L12.9437 10.0147H12.9422V11.5147ZM14.4744 10.6946L13.2263 9.86265L13.2254 9.86398L14.4744 10.6946ZM15.013 9.88663L16.2612 10.7186L16.2619 10.7174L15.013 9.88663ZM15.6873 9.52593L15.6853 11.0259H15.6873V9.52593ZM18.9554 9.52593L18.957 8.02593H18.9554V9.52593ZM19.7656 10.3361H21.2656V10.3346L19.7656 10.3361ZM19.4711 8.57726H20.9711V7.02148H19.4711H17.9711V8.57726H19.4711ZM19.4711 7.02148L20.971 7.01628C20.9685 6.29517 20.7326 5.59426 20.2985 5.01842L19.1007 5.92134L17.9029 6.82426C17.9469 6.8826 17.9708 6.95362 17.9711 7.02669L19.4711 7.02148ZM19.1007 5.92134L20.2985 5.01842C19.8645 4.44258 19.2556 4.02279 18.563 3.82184L18.1451 5.26243L17.7271 6.70302C17.7973 6.72338 17.8589 6.76591 17.9029 6.82426L19.1007 5.92134ZM18.1451 5.26243H19.6451V3.70668H18.1451H16.6451V5.26243H18.1451ZM18.1451 3.70668L19.6451 3.70491C19.644 2.81949 19.2918 1.97064 18.6657 1.34456L17.6051 2.40522L16.5444 3.46588C16.6088 3.53022 16.645 3.61746 16.6451 3.70845L18.1451 3.70668ZM17.6051 2.40522L18.6657 1.34456C18.0397 0.718475 17.1908 0.366282 16.3054 0.365235L16.3036 1.86523L16.3018 3.36523C16.3928 3.36534 16.4801 3.40154 16.5444 3.46588L17.6051 2.40522ZM16.3036 1.86523V0.365234H5.69638V1.86523V3.36523H16.3036V1.86523ZM5.69638 1.86523L5.69461 0.365235C4.80919 0.366282 3.96034 0.718475 3.33426 1.34456L4.39492 2.40522L5.45558 3.46588C5.51992 3.40154 5.60716 3.36534 5.69815 3.36523L5.69638 1.86523ZM4.39492 2.40522L3.33426 1.34456C2.70818 1.97064 2.35598 2.81949 2.35494 3.70491L3.85494 3.70668L5.35494 3.70845C5.35504 3.61746 5.39124 3.53022 5.45558 3.46588L4.39492 2.40522ZM3.85494 3.70668H2.35494V5.26243H3.85494H5.35494V3.70668H3.85494ZM3.85494 5.26243L3.43695 3.82184C2.7444 4.02279 2.13553 4.44259 1.70146 5.01842L2.89927 5.92134L4.09708 6.82426C4.14106 6.76591 4.20275 6.72338 4.27292 6.70302L3.85494 5.26243ZM2.89927 5.92134L1.70146 5.01842C1.26739 5.59426 1.03145 6.29517 1.02895 7.01628L2.52894 7.02148L4.02894 7.02669C4.02919 6.95362 4.0531 6.8826 4.09708 6.82426L2.89927 5.92134ZM2.52894 7.02148H1.02894V8.57726H2.52894H4.02894V7.02148H2.52894ZM2.52894 8.57726L2.11084 7.1367C1.41839 7.33768 0.809625 7.75745 0.375616 8.33322L1.57343 9.23613L2.77125 10.139C2.81522 10.0807 2.8769 10.0382 2.94705 10.0178L2.52894 8.57726ZM1.57343 9.23613L0.375616 8.33322C-0.0583938 8.90899 -0.29432 9.6098 -0.296866 10.3308L1.20312 10.3361L2.70312 10.3414C2.70337 10.2684 2.72728 10.1974 2.77125 10.139L1.57343 9.23613ZM1.20312 10.3361H-0.296875V18.2916H1.20312H2.70312V10.3361H1.20312ZM1.20312 18.2916L-0.296874 18.2933C-0.295828 19.1787 0.0563657 20.0276 0.682449 20.6537L1.74311 19.593L2.80377 18.5324C2.73943 18.468 2.70323 18.3808 2.70312 18.2898L1.20312 18.2916ZM1.74311 19.593L0.682449 20.6537C1.30853 21.2798 2.15738 21.6319 3.0428 21.633L3.04457 20.133L3.04634 18.633C2.95535 18.6329 2.86811 18.5967 2.80377 18.5324L1.74311 19.593ZM3.04457 20.133V21.633H18.9554V20.133V18.633H3.04457V20.133ZM18.9554 20.133L18.9572 21.633C19.8426 21.6319 20.6915 21.2798 21.3176 20.6537L20.2569 19.593L19.1962 18.5324C19.1319 18.5967 19.0447 18.6329 18.9537 18.633L18.9554 20.133ZM20.2569 19.593L21.3176 20.6537C21.9436 20.0276 22.2958 19.1787 22.2969 18.2933L20.7969 18.2916L19.2969 18.2898C19.2968 18.3808 19.2606 18.468 19.1962 18.5324L20.2569 19.593ZM20.7969 18.2916H22.2969V10.3361H20.7969H19.2969V18.2916H20.7969ZM20.7969 10.3361L22.2969 10.3308C22.2943 9.60981 22.0584 8.90899 21.6244 8.33322L20.4266 9.23613L19.2288 10.139C19.2727 10.1974 19.2966 10.2684 19.2969 10.3414L20.7969 10.3361ZM20.4266 9.23613L21.6244 8.33322C21.1904 7.75745 20.5816 7.33768 19.8892 7.1367L19.4711 8.57726L19.0529 10.0178C19.1231 10.0382 19.1848 10.0807 19.2288 10.139L20.4266 9.23613ZM5.69638 2.89648V4.39648H16.3036V2.89648V1.39648H5.69638V2.89648ZM16.3036 2.89648L16.3021 4.39648C16.1196 4.3963 15.9446 4.32372 15.8156 4.19469L16.8763 3.13403L17.9369 2.07337C17.5041 1.64055 16.9173 1.39712 16.3052 1.39649L16.3036 2.89648ZM16.8763 3.13403L15.8156 4.19469C15.6866 4.06566 15.614 3.8907 15.6138 3.70822L17.1138 3.70668L18.6138 3.70513C18.6132 3.09304 18.3697 2.50619 17.9369 2.07337L16.8763 3.13403ZM17.1138 3.70668H15.6138V5.17987H17.1138H18.6138V3.70668H17.1138ZM17.1138 5.17987V3.67987H4.88619V5.17987V6.67987H17.1138V5.17987ZM4.88619 5.17987H6.38619V3.70668H4.88619H3.38619V5.17987H4.88619ZM4.88619 3.70668L6.38619 3.70822C6.386 3.8907 6.31342 4.06566 6.18439 4.19469L5.12373 3.13403L4.06307 2.07337C3.63025 2.50619 3.38682 3.09304 3.38619 3.70513L4.88619 3.70668ZM5.12373 3.13403L6.18439 4.19469C6.05536 4.32372 5.88041 4.3963 5.69792 4.39648L5.69638 2.89648L5.69484 1.39649C5.08274 1.39712 4.49589 1.64055 4.06307 2.07337L5.12373 3.13403ZM4.37056 6.21112V7.71112H17.6294V6.21112V4.71112H4.37056V6.21112ZM17.6294 6.21112L17.6277 7.71112C17.4453 7.71091 17.2705 7.63837 17.1415 7.50941L18.2022 6.44875L19.2628 5.38809C18.83 4.9553 18.2433 4.71184 17.6312 4.71112L17.6294 6.21112ZM18.2022 6.44875L17.1415 7.50941C17.0126 7.38046 16.94 7.20562 16.9398 7.02325L18.4398 7.02148L19.9398 7.01972C19.9391 6.40766 19.6956 5.82088 19.2628 5.38809L18.2022 6.44875ZM18.4398 7.02148H16.9398V8.49468H18.4398H19.9398V7.02148H18.4398ZM18.4398 8.49468V6.99468H15.6873V8.49468V9.99468H18.4398V8.49468ZM15.6873 8.49468L15.6889 6.99468C15.1382 6.99407 14.596 7.12972 14.1104 7.38954L14.8181 8.7121L15.5258 10.0347C15.575 10.0083 15.6299 9.99461 15.6856 9.99468L15.6873 8.49468ZM14.8181 8.7121L14.1104 7.38954C13.6249 7.64936 13.2111 8.02527 12.9061 8.48378L14.155 9.31461L15.4039 10.1454C15.4348 10.099 15.4767 10.061 15.5258 10.0347L14.8181 8.7121ZM14.155 9.31461L12.9069 8.48262L12.3683 9.29063L13.6164 10.1226L14.8645 10.9546L15.4031 10.1466L14.155 9.31461ZM13.6164 10.1226L12.3674 9.29198C12.4305 9.19701 12.5162 9.11913 12.6168 9.0653L13.3246 10.3878L14.0325 11.7103C14.3683 11.5305 14.6545 11.2704 14.8654 10.9533L13.6164 10.1226ZM13.3246 10.3878L12.6168 9.0653C12.7174 9.01147 12.8297 8.98337 12.9438 8.98349L12.9422 10.4835L12.9405 11.9835C13.3215 11.9839 13.6966 11.89 14.0325 11.7103L13.3246 10.3878ZM12.9422 10.4835V8.98349H9.05785V10.4835V11.9835H12.9422V10.4835ZM9.05785 10.4835L9.05624 8.98349C9.17031 8.98337 9.28263 9.01148 9.3832 9.0653L8.67537 10.3878L7.96755 11.7103C8.3034 11.89 8.67852 11.9839 9.05946 11.9835L9.05785 10.4835ZM8.67537 10.3878L9.3832 9.0653C9.48377 9.11913 9.56946 9.197 9.63262 9.29198L8.38361 10.1226L7.13459 10.9533C7.34553 11.2705 7.63169 11.5305 7.96755 11.7103L8.67537 10.3878ZM8.38361 10.1226L9.63172 9.29063L9.0931 8.48262L7.84499 9.31461L6.59687 10.1466L7.13549 10.9546L8.38361 10.1226ZM7.84499 9.31461L9.09388 8.48378C8.78886 8.02528 8.37514 7.64936 7.88959 7.38954L7.18188 8.7121L6.47417 10.0347C6.52333 10.061 6.56522 10.099 6.5961 10.1454L7.84499 9.31461ZM7.18188 8.7121L7.88959 7.38954C7.40404 7.12972 6.86176 6.99407 6.31107 6.99468L6.31271 8.49468L6.31436 9.99468C6.37012 9.99461 6.42502 10.0083 6.47417 10.0347L7.18188 8.7121ZM6.31271 8.49468V6.99468H3.56019V8.49468V9.99468H6.31271V8.49468ZM3.56019 8.49468H5.06019V7.02148H3.56019H2.06019V8.49468H3.56019ZM3.56019 7.02148L5.06019 7.02325C5.05998 7.20562 4.98744 7.38046 4.85848 7.50941L3.79783 6.44875L2.73717 5.38809C2.30438 5.82088 2.06092 6.40766 2.0602 7.01972L3.56019 7.02148ZM3.79783 6.44875L4.85848 7.50941C4.72953 7.63837 4.55469 7.71091 4.37232 7.71112L4.37056 6.21112L4.3688 4.71112C3.75674 4.71184 3.16996 4.9553 2.73717 5.38809L3.79783 6.44875ZM19.7656 18.2916L18.2656 18.29C18.2658 18.1075 18.3384 17.9326 18.4674 17.8035L19.5281 18.8642L20.5887 19.9249C21.0216 19.492 21.265 18.9052 21.2656 18.2931L19.7656 18.2916ZM19.5281 18.8642L18.4674 17.8035C18.5965 17.6745 18.7714 17.6019 18.9539 17.6017L18.9554 19.1017L18.957 20.6017C19.5691 20.6011 20.1559 20.3577 20.5887 19.9249L19.5281 18.8642ZM18.9554 19.1017V17.6017H3.04457V19.1017V20.6017H18.9554V19.1017ZM3.04457 19.1017L3.04611 17.6017C3.2286 17.6019 3.40355 17.6745 3.53258 17.8035L2.47192 18.8642L1.41126 19.9249C1.84408 20.3577 2.43093 20.6011 3.04303 20.6017L3.04457 19.1017ZM2.47192 18.8642L3.53258 17.8035C3.66161 17.9326 3.73419 18.1075 3.73437 18.29L2.23438 18.2916L0.734376 18.2931C0.735006 18.9052 0.978441 19.492 1.41126 19.9249L2.47192 18.8642ZM2.23438 18.2916H3.73438V10.3361H2.23438H0.734375V18.2916H2.23438ZM2.23438 10.3361L3.73437 10.3377C3.73419 10.5201 3.66161 10.6951 3.53258 10.8241L2.47192 9.76347L1.41126 8.70281C0.97844 9.13563 0.735006 9.72248 0.734376 10.3346L2.23438 10.3361ZM2.47192 9.76347L3.53258 10.8241C3.40355 10.9532 3.2286 11.0257 3.04611 11.0259L3.04457 9.52593L3.04303 8.02593C2.43093 8.02656 1.84408 8.26999 1.41126 8.70281L2.47192 9.76347ZM3.04457 9.52593V11.0259H6.31271V9.52593V8.02593H3.04457V9.52593ZM6.31271 9.52593L6.31469 11.0259C6.20059 11.0261 6.08821 10.998 5.9876 10.9442L6.69517 9.62153L7.40274 8.2989C7.06684 8.1192 6.69168 8.02542 6.31074 8.02593L6.31271 9.52593ZM6.69517 9.62153L5.9876 10.9442C5.88698 10.8903 5.80125 10.8124 5.73805 10.7174L6.98695 9.88663L8.23585 9.05582C8.02486 8.73864 7.73865 8.47861 7.40274 8.2989L6.69517 9.62153ZM6.98695 9.88663L5.73884 10.7186L6.27746 11.5266L7.52557 10.6946L8.77369 9.86265L8.23507 9.05464L6.98695 9.88663ZM7.52557 10.6946L6.27658 11.5253C6.58156 11.9839 6.99527 12.3599 7.48083 12.6197L8.18865 11.2973L8.89647 9.97476C8.84732 9.94845 8.80544 9.91039 8.77457 9.86398L7.52557 10.6946ZM8.18865 11.2973L7.48083 12.6197C7.96639 12.8796 8.5087 13.0153 9.05943 13.0147L9.05785 11.5147L9.05626 10.0147C9.00051 10.0148 8.94562 10.0011 8.89647 9.97476L8.18865 11.2973ZM9.05785 11.5147V13.0147H12.9422V11.5147V10.0147H9.05785V11.5147ZM12.9422 11.5147L12.9406 13.0147C13.4913 13.0153 14.0336 12.8796 14.5192 12.6197L13.8114 11.2973L13.1035 9.97476C13.0544 10.0011 12.9995 10.0148 12.9437 10.0147L12.9422 11.5147ZM13.8114 11.2973L14.5192 12.6197C15.0047 12.3599 15.4184 11.9839 15.7234 11.5253L14.4744 10.6946L13.2254 9.86398C13.1946 9.91039 13.1527 9.94845 13.1035 9.97476L13.8114 11.2973ZM14.4744 10.6946L15.7225 11.5266L16.2612 10.7186L15.013 9.88663L13.7649 9.05464L13.2263 9.86265L14.4744 10.6946ZM15.013 9.88663L16.2619 10.7174C16.1987 10.8124 16.113 10.8903 16.0124 10.9442L15.3048 9.62153L14.5973 8.2989C14.2614 8.4786 13.9751 8.73864 13.7641 9.05582L15.013 9.88663ZM15.3048 9.62153L16.0124 10.9442C15.9118 10.998 15.7994 11.0261 15.6853 11.0259L15.6873 9.52593L15.6893 8.02593C15.3083 8.02542 14.9332 8.11921 14.5973 8.2989L15.3048 9.62153ZM15.6873 9.52593V11.0259H18.9554V9.52593V8.02593H15.6873V9.52593ZM18.9554 9.52593L18.9539 11.0259C18.7714 11.0257 18.5965 10.9532 18.4674 10.8241L19.5281 9.76347L20.5887 8.70281C20.1559 8.26999 19.5691 8.02656 18.957 8.02593L18.9554 9.52593ZM19.5281 9.76347L18.4674 10.8241C18.3384 10.6951 18.2658 10.5201 18.2656 10.3377L19.7656 10.3361L21.2656 10.3346C21.265 9.72248 21.0216 9.13563 20.5887 8.70281L19.5281 9.76347ZM19.7656 10.3361H18.2656V18.2916H19.7656H21.2656V10.3361H19.7656Z" fill="black" mask="url(#path-1-inside-1_1486_749)"/>
<path d="M13.3206 14.793H8.68001C8.54456 14.795 8.41533 14.8501 8.32025 14.9466C8.22517 15.0431 8.17187 15.1731 8.17188 15.3086C8.17188 15.4441 8.22518 15.5741 8.32027 15.6706C8.41536 15.7671 8.54459 15.8222 8.68004 15.8242H13.3206C13.4561 15.8222 13.5853 15.767 13.6804 15.6706C13.7755 15.5741 13.8288 15.4441 13.8288 15.3086C13.8288 15.1731 13.7755 15.0431 13.6804 14.9466C13.5853 14.8501 13.4561 14.7949 13.3206 14.793Z" fill="black"/>
</svg>
