<?xml version="1.0" encoding="UTF-8"?>
<svg version="1.1" xmlns="http://www.w3.org/2000/svg" width="24" height="24">
<path d="M0 0 C6.27 0 12.54 0 19 0 C19 3.96 19 7.92 19 12 C17.68 12 16.36 12 15 12 C15.01160156 12.78246094 15.02320312 13.56492187 15.03515625 14.37109375 C15.04417969 15.38300781 15.05320312 16.39492188 15.0625 17.4375 C15.07410156 18.44683594 15.08570312 19.45617187 15.09765625 20.49609375 C15 23 15 23 14 24 C12.58429877 24.08651611 11.164405 24.10704904 9.74609375 24.09765625 C8.9770874 24.09515869 8.20808105 24.09266113 7.41577148 24.09008789 C6.43294189 24.08098389 5.4501123 24.07187988 4.4375 24.0625 C-0.2340625 24.0315625 -0.2340625 24.0315625 -5 24 C-5 17.4 -5 10.8 -5 4 C-3.35 4 -1.7 4 0 4 C0 2.68 0 1.36 0 0 Z M-3 7 C-3 11.62 -3 16.24 -3 21 C1.95 21 6.9 21 12 21 C12 18.03 12 15.06 12 12 C11.01 12 10.02 12 9 12 C9 12.99 9 13.98 9 15 C8.01 15.33 7.02 15.66 6 16 C6 16.99 6 17.98 6 19 C3.69 19.33 1.38 19.66 -1 20 C-0.34 17.69 0.32 15.38 1 13 C1.99 13.33 2.98 13.66 4 14 C4.33 13.34 4.66 12.68 5 12 C3.35 12 1.7 12 0 12 C0 10.35 0 8.7 0 7 C-0.99 7 -1.98 7 -3 7 Z " fill="#0B1891" transform="translate(5,0)"/>
</svg>
