<?xml version="1.0" encoding="UTF-8"?>
<svg version="1.1" xmlns="http://www.w3.org/2000/svg" width="187" height="77">
<path d="M0 0 C1.33779178 -0.00435266 2.67558107 -0.00953765 4.0133667 -0.01548767 C7.63117087 -0.02882878 11.24887025 -0.02946187 14.86669421 -0.02692437 C17.89342967 -0.02585143 20.9201442 -0.03074624 23.94687515 -0.03552979 C31.09041329 -0.04660787 38.23389884 -0.04707184 45.37744141 -0.04101562 C52.73301703 -0.03497531 60.08840139 -0.04729212 67.44394439 -0.06858569 C73.77283296 -0.08622968 80.1016608 -0.09219869 86.43057305 -0.08894795 C90.20456115 -0.08713955 93.97841276 -0.08972687 97.75237846 -0.10366249 C101.30245214 -0.11628208 104.85222861 -0.11425809 108.40229797 -0.1012516 C110.3163074 -0.09777698 112.23032608 -0.10903304 114.14430237 -0.12081909 C128.44759397 -0.03385134 128.44759397 -0.03385134 133.75610352 5.2746582 C134.03025818 7.08273315 134.03025818 7.08273315 134.0625 9.29370117 C134.0784874 10.12151093 134.09447479 10.94932068 134.11094666 11.80221558 C134.11630936 12.69804352 134.12167206 13.59387146 134.12719727 14.5168457 C134.13622574 15.436763 134.14525421 16.3566803 134.15455627 17.30447388 C134.16907994 19.2529982 134.17795075 21.20157153 134.18164062 23.15014648 C134.19353026 26.13128969 134.24268828 29.11035889 134.29321289 32.09106445 C134.30267758 33.98298142 134.3099124 35.87491112 134.31469727 37.7668457 C134.34399574 39.10451492 134.34399574 39.10451492 134.37388611 40.46920776 C134.32892325 46.63995999 134.32892325 46.63995999 131.47119141 49.80639648 C127.56622075 51.91812147 124.4384744 52.40116002 120.02845764 52.35212708 C118.60639008 52.34079742 118.60639008 52.34079742 117.15559387 52.32923889 C115.60445137 52.30959328 115.60445137 52.30959328 114.02197266 52.28955078 C111.75074146 52.27010642 109.47950603 52.25115315 107.20826721 52.23262024 C105.39824313 52.21587974 105.39824313 52.21587974 103.55165291 52.19880104 C96.43630627 52.14277054 89.32076148 52.13920841 82.20522511 52.12924349 C74.70685576 52.11803703 67.20977908 52.08790065 59.71191406 51.99707031 C18.62917182 50.59456861 18.62917182 50.59456861 -19.30787659 64.19194031 C-21.24389648 65.2746582 -21.24389648 65.2746582 -23.24389648 65.2746582 C-23.31338457 57.50349513 -23.3667015 49.73240473 -23.399333 41.96100903 C-23.41499399 38.35247518 -23.43623964 34.74415377 -23.47021484 31.13574219 C-23.50279365 27.65387698 -23.52074624 24.1722162 -23.52852821 20.69021034 C-23.53677504 18.71423724 -23.56019687 16.73834646 -23.58378601 14.76249695 C-23.5840126 13.56147842 -23.5842392 12.3604599 -23.58447266 11.12304688 C-23.59113449 10.06381516 -23.59779633 9.00458344 -23.60466003 7.91325378 C-23.24389648 5.2746582 -23.24389648 5.2746582 -22.16011047 3.53413391 C-15.53567369 -0.81992949 -7.60635512 -0.01515634 0 0 Z " fill="#0E1A93" transform="translate(38.243896484375,5.725341796875)"/>
<path d="M0 0 C1.33779178 -0.00435266 2.67558107 -0.00953765 4.0133667 -0.01548767 C7.63117087 -0.02882878 11.24887025 -0.02946187 14.86669421 -0.02692437 C17.89342967 -0.02585143 20.9201442 -0.03074624 23.94687515 -0.03552979 C31.09041329 -0.04660787 38.23389884 -0.04707184 45.37744141 -0.04101562 C52.73301703 -0.03497531 60.08840139 -0.04729212 67.44394439 -0.06858569 C73.77283296 -0.08622968 80.1016608 -0.09219869 86.43057305 -0.08894795 C90.20456115 -0.08713955 93.97841276 -0.08972687 97.75237846 -0.10366249 C101.30245214 -0.11628208 104.85222861 -0.11425809 108.40229797 -0.1012516 C110.3163074 -0.09777698 112.23032608 -0.10903304 114.14430237 -0.12081909 C128.44759397 -0.03385134 128.44759397 -0.03385134 133.75610352 5.2746582 C134.03025818 7.08273315 134.03025818 7.08273315 134.0625 9.29370117 C134.0784874 10.12151093 134.09447479 10.94932068 134.11094666 11.80221558 C134.11630936 12.69804352 134.12167206 13.59387146 134.12719727 14.5168457 C134.13622574 15.436763 134.14525421 16.3566803 134.15455627 17.30447388 C134.16907994 19.2529982 134.17795075 21.20157153 134.18164062 23.15014648 C134.19353026 26.13128969 134.24268828 29.11035889 134.29321289 32.09106445 C134.30267758 33.98298142 134.3099124 35.87491112 134.31469727 37.7668457 C134.34399574 39.10451492 134.34399574 39.10451492 134.37388611 40.46920776 C134.32892325 46.63995999 134.32892325 46.63995999 131.47119141 49.80639648 C127.56622075 51.91812147 124.4384744 52.40116002 120.02845764 52.35212708 C118.60639008 52.34079742 118.60639008 52.34079742 117.15559387 52.32923889 C115.60445137 52.30959328 115.60445137 52.30959328 114.02197266 52.28955078 C111.75074146 52.27010642 109.47950603 52.25115315 107.20826721 52.23262024 C105.39824313 52.21587974 105.39824313 52.21587974 103.55165291 52.19880104 C96.43630627 52.14277054 89.32076148 52.13920841 82.20522511 52.12924349 C74.70685576 52.11803703 67.20977908 52.08790065 59.71191406 51.99707031 C18.62917182 50.59456861 18.62917182 50.59456861 -19.30787659 64.19194031 C-21.24389648 65.2746582 -21.24389648 65.2746582 -23.24389648 65.2746582 C-23.31338457 57.50349513 -23.3667015 49.73240473 -23.399333 41.96100903 C-23.41499399 38.35247518 -23.43623964 34.74415377 -23.47021484 31.13574219 C-23.50279365 27.65387698 -23.52074624 24.1722162 -23.52852821 20.69021034 C-23.53677504 18.71423724 -23.56019687 16.73834646 -23.58378601 14.76249695 C-23.5840126 13.56147842 -23.5842392 12.3604599 -23.58447266 11.12304688 C-23.59113449 10.06381516 -23.59779633 9.00458344 -23.60466003 7.91325378 C-23.24389648 5.2746582 -23.24389648 5.2746582 -22.16011047 3.53413391 C-15.53567369 -0.81992949 -7.60635512 -0.01515634 0 0 Z M-7.24389648 7.2746582 C-7.24389648 20.8046582 -7.24389648 34.3346582 -7.24389648 48.2746582 C-1.78305387 47.66677267 -1.78305387 47.66677267 0.75610352 46.2746582 C2.31427386 46.170447 3.87677757 46.12814352 5.43838501 46.11643982 C6.42559036 46.106651 7.41279572 46.09686218 8.42991638 46.08677673 C9.51676224 46.08102127 10.60360809 46.07526581 11.72338867 46.06933594 C12.86484848 46.05943634 14.00630829 46.04953674 15.18235779 46.03933716 C18.96993915 46.00765155 22.75753308 45.98293682 26.54516602 45.95825195 C29.16547987 45.93768852 31.78579036 45.91669222 34.40609741 45.89527893 C40.60734119 45.84533466 46.80861082 45.80040229 53.00990522 45.75725657 C60.0690983 45.70789899 67.12824461 45.65297539 74.18739247 45.59757698 C88.71025312 45.48373032 103.23316159 45.37763196 117.75610352 45.2746582 C117.75610352 32.7346582 117.75610352 20.1946582 117.75610352 7.2746582 C76.50610352 7.2746582 35.25610352 7.2746582 -7.24389648 7.2746582 Z " fill="#1A192B" transform="translate(38.243896484375,5.725341796875)"/>
<path d="M0 0 C1.33779178 -0.00435266 2.67558107 -0.00953765 4.0133667 -0.01548767 C7.63117087 -0.02882878 11.24887025 -0.02946187 14.86669421 -0.02692437 C17.89342967 -0.02585143 20.9201442 -0.03074624 23.94687515 -0.03552979 C31.09041329 -0.04660787 38.23389884 -0.04707184 45.37744141 -0.04101562 C52.73301703 -0.03497531 60.08840139 -0.04729212 67.44394439 -0.06858569 C73.77283296 -0.08622968 80.1016608 -0.09219869 86.43057305 -0.08894795 C90.20456115 -0.08713955 93.97841276 -0.08972687 97.75237846 -0.10366249 C101.30245214 -0.11628208 104.85222861 -0.11425809 108.40229797 -0.1012516 C110.3163074 -0.09777698 112.23032608 -0.10903304 114.14430237 -0.12081909 C128.44759397 -0.03385134 128.44759397 -0.03385134 133.75610352 5.2746582 C134.03025818 7.08273315 134.03025818 7.08273315 134.0625 9.29370117 C134.0784874 10.12151093 134.09447479 10.94932068 134.11094666 11.80221558 C134.11630936 12.69804352 134.12167206 13.59387146 134.12719727 14.5168457 C134.13622574 15.436763 134.14525421 16.3566803 134.15455627 17.30447388 C134.16907994 19.2529982 134.17795075 21.20157153 134.18164062 23.15014648 C134.19353026 26.13128969 134.24268828 29.11035889 134.29321289 32.09106445 C134.30267758 33.98298142 134.3099124 35.87491112 134.31469727 37.7668457 C134.34399574 39.10451492 134.34399574 39.10451492 134.37388611 40.46920776 C134.32892325 46.63995999 134.32892325 46.63995999 131.47119141 49.80639648 C127.56622075 51.91812147 124.4384744 52.40116002 120.02845764 52.35212708 C118.60639008 52.34079742 118.60639008 52.34079742 117.15559387 52.32923889 C115.60445137 52.30959328 115.60445137 52.30959328 114.02197266 52.28955078 C111.75074146 52.27010642 109.47950603 52.25115315 107.20826721 52.23262024 C105.39824313 52.21587974 105.39824313 52.21587974 103.55165291 52.19880104 C96.43630627 52.14277054 89.32076148 52.13920841 82.20522511 52.12924349 C74.70685576 52.11803703 67.20977908 52.08790065 59.71191406 51.99707031 C18.62917182 50.59456861 18.62917182 50.59456861 -19.30787659 64.19194031 C-21.24389648 65.2746582 -21.24389648 65.2746582 -23.24389648 65.2746582 C-23.31338457 57.50349513 -23.3667015 49.73240473 -23.399333 41.96100903 C-23.41499399 38.35247518 -23.43623964 34.74415377 -23.47021484 31.13574219 C-23.50279365 27.65387698 -23.52074624 24.1722162 -23.52852821 20.69021034 C-23.53677504 18.71423724 -23.56019687 16.73834646 -23.58378601 14.76249695 C-23.5840126 13.56147842 -23.5842392 12.3604599 -23.58447266 11.12304688 C-23.59113449 10.06381516 -23.59779633 9.00458344 -23.60466003 7.91325378 C-23.24389648 5.2746582 -23.24389648 5.2746582 -22.16011047 3.53413391 C-15.53567369 -0.81992949 -7.60635512 -0.01515634 0 0 Z M-21.24389648 5.2746582 C-21.33765702 7.08520846 -21.36133758 8.89943022 -21.35742188 10.71240234 C-21.35734634 11.87353043 -21.35727081 13.03465851 -21.35719299 14.23097229 C-21.35203171 15.4944902 -21.34687042 16.75800812 -21.34155273 18.05981445 C-21.34013779 19.34577011 -21.33872284 20.63172577 -21.33726501 21.95664978 C-21.33344066 25.38109263 -21.3236111 28.80549329 -21.31256104 32.22991943 C-21.30234513 35.72204009 -21.29776701 39.21416754 -21.29272461 42.70629883 C-21.28198875 49.56243599 -21.26491333 56.41854507 -21.24389648 63.2746582 C-17.11833868 61.63022065 -12.99354588 59.9838728 -8.86889648 58.3371582 C-7.10545898 57.63429688 -7.10545898 57.63429688 -5.30639648 56.91723633 C-4.18491211 56.46928711 -3.06342773 56.02133789 -1.90795898 55.55981445 C-0.87106934 55.14610596 0.16582031 54.73239746 1.23413086 54.30615234 C3.69486165 53.33666782 3.69486165 53.33666782 5.75610352 52.2746582 C7.28158399 52.1768768 8.81125496 52.14126825 10.33985901 52.1366272 C11.30564377 52.13117386 12.27142853 52.12572052 13.26647949 52.12010193 C14.86151306 52.11853844 14.86151306 52.11853844 16.48876953 52.11694336 C17.60601913 52.11186264 18.72326874 52.10678192 19.87437439 52.10154724 C22.30797599 52.09082446 24.74158756 52.08221181 27.17520332 52.07542801 C31.0298544 52.06366012 34.88439237 52.04421071 38.73899841 52.02230835 C49.70144854 51.96063478 60.66388862 51.90647298 71.62646484 51.87329102 C78.32674768 51.85292127 85.02679988 51.81698327 91.72697258 51.77253342 C94.27893613 51.75838994 96.83093571 51.74965473 99.38293648 51.74647903 C102.96139838 51.74155652 106.53932342 51.71836087 110.11767578 51.69116211 C111.16686188 51.69416824 112.21604797 51.69717438 113.29702759 51.70027161 C123.20524052 51.64995059 123.20524052 51.64995059 131.75610352 47.2746582 C131.84484486 44.1721462 131.87128807 41.091977 131.85375977 37.98950195 C131.85234482 37.05868301 131.85092987 36.12786407 131.84947205 35.1688385 C131.84385524 32.18324629 131.83129991 29.19772791 131.81860352 26.2121582 C131.81359068 24.19327907 131.8090274 22.17439878 131.80493164 20.15551758 C131.79388035 15.19520249 131.77660447 10.23494288 131.75610352 5.2746582 C126.27806334 2.4111372 122.40140351 1.15302665 116.24176025 1.13421631 C114.55960922 1.12565109 114.55960922 1.12565109 112.84347534 1.11691284 C111.61742584 1.11579498 110.39137634 1.11467712 109.12817383 1.11352539 C107.83346161 1.10856049 106.53874939 1.10359558 105.20480347 1.09848022 C101.65503011 1.08537805 98.10527566 1.07891539 94.55548191 1.07446957 C92.33555664 1.07153496 90.11563649 1.06742939 87.89571381 1.06296539 C80.94386483 1.04929542 73.99202762 1.03962665 67.04016614 1.0357635 C59.02698014 1.03128561 51.01396496 1.01374818 43.00083089 0.98476291 C36.79939911 0.96311308 30.59801528 0.95305744 24.39654613 0.95172238 C20.69627607 0.9506766 16.9961667 0.94481743 13.29593658 0.92690277 C9.16439022 0.90728871 5.03319918 0.91172417 0.90161133 0.91821289 C-0.31634125 0.90899811 -1.53429382 0.89978333 -2.78915405 0.89028931 C-12.71160864 0.77299771 -12.71160864 0.77299771 -21.24389648 5.2746582 Z " fill="#0C135C" transform="translate(38.243896484375,5.725341796875)"/>
<path d="M0 0 C0.99 0 1.98 0 3 0 C4.65 3.3 6.3 6.6 8 10 C9.65 9.67 11.3 9.34 13 9 C11.35 8.34 9.7 7.68 8 7 C8 6.01 8 5.02 8 4 C11.465 3.505 11.465 3.505 15 3 C14.67 3.66 14.34 4.32 14 5 C13.01 5.33 12.02 5.66 11 6 C12.65 6.66 14.3 7.32 16 8 C15.67 9.32 15.34 10.64 15 12 C11.7 12 8.4 12 5 12 C5 11.01 5 10.02 5 9 C2.69 9 0.38 9 -2 9 C-2.33 9.99 -2.66 10.98 -3 12 C-3.66 11.67 -4.32 11.34 -5 11 C-3.35 7.37 -1.7 3.74 0 0 Z " fill="#F0F1F8" transform="translate(47,26)"/>
<path d="M0 0 C0.99 0 1.98 0 3 0 C3 1.32 3 2.64 3 4 C3.66 4 4.32 4 5 4 C5 2.68 5 1.36 5 0 C5.66 0 6.32 0 7 0 C7 3.96 7 7.92 7 12 C4.69 12 2.38 12 0 12 C0 8 0 4 0 0 Z " fill="#9FA3D3" transform="translate(134,26)"/>
<path d="M0 0 C2.97 0 5.94 0 9 0 C9 0.66 9 1.32 9 2 C6.69 2 4.38 2 2 2 C2 2.99 2 3.98 2 5 C3.98 5 5.96 5 8 5 C8 5.66 8 6.32 8 7 C6.02 7 4.04 7 2 7 C2 7.99 2 8.98 2 10 C4.31 10 6.62 10 9 10 C9 10.66 9 11.32 9 12 C6.03 12 3.06 12 0 12 C0 8.04 0 4.08 0 0 Z " fill="#E8E9F4" transform="translate(85,26)"/>
<path d="M0 0 C3.63 0 7.26 0 11 0 C11 0.66 11 1.32 11 2 C9.68 2 8.36 2 7 2 C7 5.3 7 8.6 7 12 C6.01 12 5.02 12 4 12 C4 8.7 4 5.4 4 2 C2.68 2 1.36 2 0 2 C0 1.34 0 0.68 0 0 Z " fill="#CDD0E8" transform="translate(100,26)"/>
<path d="M0 0 C0.66 0 1.32 0 2 0 C2 2.31 2 4.62 2 7 C3.32 6.01 4.64 5.02 6 4 C6.66 4.33 7.32 4.66 8 5 C7.79375 5.763125 7.5875 6.52625 7.375 7.3125 C6.66608797 10.21885944 6.66608797 10.21885944 9 13 C6.13275314 12.42655063 5.1385485 12.1385485 3 10 C2.67 10.99 2.34 11.98 2 13 C1.34 13 0.68 13 0 13 C0 8.71 0 4.42 0 0 Z " fill="#E9EAF5" transform="translate(65,25)"/>
<path d="M0 0 C0.99 0 1.98 0 3 0 C4.65 3.96 6.3 7.92 8 12 C7.01 12 6.02 12 5 12 C5 11.01 5 10.02 5 9 C2.69 9 0.38 9 -2 9 C-2.33 9.99 -2.66 10.98 -3 12 C-3.66 11.67 -4.32 11.34 -5 11 C-4.34 9.35 -3.68 7.7 -3 6 C-2.34 6 -1.68 6 -1 6 C-1 6.66 -1 7.32 -1 8 C0.32 8 1.64 8 3 8 C2.690625 7.4225 2.38125 6.845 2.0625 6.25 C1.07416636 4.15705816 0.4831387 2.25464725 0 0 Z " fill="#EEEFF7" transform="translate(115,26)"/>
<path d="M0 0 C-0.33 0.66 -0.66 1.32 -1 2 C-1.99 2.33 -2.98 2.66 -4 3 C-1.525 3.99 -1.525 3.99 1 5 C0.67 6.32 0.34 7.64 0 9 C-2.64 9 -5.28 9 -8 9 C-7.67 8.34 -7.34 7.68 -7 7 C-4.4375 6.375 -4.4375 6.375 -2 6 C-4.475 5.01 -4.475 5.01 -7 4 C-7 3.01 -7 2.02 -7 1 C-4.53721199 -0.231394 -2.7204945 -0.07159196 0 0 Z " fill="#DADCEE" transform="translate(62,29)"/>
<path d="M0 0 C0.99 0 1.98 0 3 0 C3 3.96 3 7.92 3 12 C2.01 12 1.02 12 0 12 C0 8.04 0 4.08 0 0 Z " fill="#C0C3E2" transform="translate(124,26)"/>
<path d="M0 0 C0.33 0 0.66 0 1 0 C1 4.29 1 8.58 1 13 C0.67 13 0.34 13 0 13 C-0.33 11.02 -0.66 9.04 -1 7 C-2.65 7.33 -4.3 7.66 -6 8 C-6 7.01 -6 6.02 -6 5 C-4.35 4.67 -2.7 4.34 -1 4 C-0.67 2.68 -0.34 1.36 0 0 Z " fill="#4750AC" transform="translate(64,25)"/>
<path d="M0 0 C0.66 0 1.32 0 2 0 C3.125 3.75 3.125 3.75 2 6 C0.35 6 -1.3 6 -3 6 C-1.125 1.125 -1.125 1.125 0 0 Z " fill="#878DC9" transform="translate(49,28)"/>
<path d="M0 0 C2 1.8125 2 1.8125 4 4 C4 4.99 4 5.98 4 7 C2.68 7 1.36 7 0 7 C-0.93423645 3.98968256 -1.04449911 3.13349732 0 0 Z " fill="#777EC2" transform="translate(114,27)"/>
<path d="M0 0 C0.99 0 1.98 0 3 0 C3.66 1.98 4.32 3.96 5 6 C4.34 6.66 3.68 7.32 3 8 C1.58622659 5.36095629 0.62759865 2.92879371 0 0 Z " fill="#DDDFEF" transform="translate(115,26)"/>
<path d="M0 0 C0.99 0 1.98 0 3 0 C1.55746343 3.36591866 -0.33264727 5.51047079 -3 8 C-1.125 2.25 -1.125 2.25 0 0 Z " fill="#E3E4F2" transform="translate(47,26)"/>
</svg>
