<svg width="21" height="21" viewBox="0 0 21 21" fill="none" xmlns="http://www.w3.org/2000/svg">
<path d="M18.2897 9.05721C18.299 4.95562 14.6543 1.36932 10.5459 1.45462C8.52277 1.45613 6.58034 2.24818 5.13303 3.66178C3.68571 5.07538 2.8481 6.9986 2.79891 9.02112C2.3622 9.18602 1.98606 9.47999 1.72053 9.86392C1.455 10.2478 1.31268 10.7035 1.3125 11.1703V13.1686C1.31317 13.7776 1.55538 14.3614 1.98598 14.792C2.41658 15.2226 3.00041 15.4648 3.60938 15.4655H4.69547C4.95648 15.4653 5.20674 15.3615 5.3913 15.1769C5.57586 14.9924 5.67964 14.7421 5.67984 14.4811V9.20158C5.67958 9.11464 5.64493 9.03133 5.58345 8.96985C5.52197 8.90837 5.43866 8.87372 5.35172 8.87346H4.94484C5.02275 7.50129 5.60329 6.20588 6.57563 5.23455C9.96453 1.82618 15.8828 4.09602 16.1404 8.87352C15.8559 8.88023 15.429 8.79289 15.4088 9.20158V14.8092C15.4087 14.8954 15.4257 14.9808 15.4587 15.0604C15.4916 15.14 15.54 15.2124 15.6009 15.2733C15.6619 15.3343 15.7342 15.3826 15.8138 15.4156C15.8935 15.4486 15.9788 15.4655 16.065 15.4655H16.8952V16.2497C16.8943 16.7533 16.6939 17.236 16.3378 17.5921C15.9817 17.9482 15.4989 18.1487 14.9953 18.1495H13.0659C13.0129 17.9374 12.8904 17.7492 12.7179 17.6148C12.5455 17.4804 12.333 17.4076 12.1144 17.408H8.97422C7.65827 17.4147 7.65555 19.5375 8.97424 19.5473H12.1144C12.3328 19.5467 12.5447 19.4736 12.717 19.3393C12.8893 19.2051 13.012 19.0174 13.0659 18.8058H14.9953C15.673 18.805 16.3227 18.5354 16.8018 18.0562C17.281 17.577 17.5506 16.9274 17.5514 16.2497V15.4556C18.131 15.416 18.6739 15.1578 19.0704 14.7333C19.4669 14.3088 19.6875 13.7495 19.6875 13.1686V11.1703C19.6869 10.7199 19.5542 10.2796 19.3057 9.90401C19.0572 9.52839 18.7039 9.23395 18.2897 9.05721ZM12.4425 18.563C12.4422 18.6499 12.4076 18.7332 12.3461 18.7947C12.2846 18.8562 12.2013 18.8909 12.1144 18.8911H8.97422C8.69161 18.8825 8.62122 18.6332 8.64611 18.3924C8.64636 18.3054 8.68101 18.2221 8.74249 18.1606C8.80396 18.0991 8.88727 18.0645 8.97422 18.0642H12.1144C12.397 18.0729 12.4674 18.3221 12.4425 18.563ZM5.02359 9.52971V14.4811C5.02333 14.5681 4.98868 14.6514 4.9272 14.7128C4.86572 14.7743 4.78241 14.809 4.69547 14.8092H3.60938C3.1743 14.8091 2.75709 14.6362 2.44945 14.3285C2.14181 14.0209 1.96891 13.6037 1.96875 13.1686V11.1703C1.96907 10.8086 2.08892 10.457 2.30967 10.1704C2.53041 9.88381 2.83968 9.67817 3.18938 9.58549C3.47331 9.48316 4.71021 9.54585 5.02359 9.52971ZM10.5427 2.94096C7.29898 2.87317 4.39296 5.63716 4.28535 8.8735C4.28531 8.87346 3.51094 8.87346 3.46172 8.88331C3.54588 7.06033 4.32875 5.33975 5.64786 4.07869C6.96697 2.81762 8.72102 2.11291 10.5459 2.11081C14.2336 2.03485 17.5412 5.20685 17.6269 8.88659C17.5514 8.87675 16.8 8.87347 16.8 8.87347C16.7128 7.27223 16.0158 5.76516 14.852 4.66184C13.6883 3.55852 12.1463 2.94273 10.5427 2.94096ZM19.0312 13.1686C19.0311 13.6037 18.8582 14.0209 18.5505 14.3285C18.2429 14.6362 17.8257 14.8091 17.3906 14.8092H16.065V9.52972H17.3906C17.8255 9.53043 18.2424 9.70351 18.5499 10.011C18.8575 10.3186 19.0305 10.7354 19.0312 11.1703V13.1686Z" fill="black"/>
<path d="M13.2269 14.5856C13.2938 14.5299 13.3359 14.4499 13.3438 14.3633C13.3518 14.2766 13.325 14.1903 13.2693 14.1234C13.2137 14.0564 13.1337 14.0144 13.047 14.0064C12.9603 13.9984 12.874 14.0252 12.8071 14.0809C12.1217 14.6508 11.2499 14.9471 10.3592 14.9128C9.46858 14.8786 8.62205 14.5162 7.98248 13.8954C7.34292 13.2746 6.95551 12.4392 6.89476 11.55C6.83402 10.6607 7.10424 9.78043 7.65344 9.07843C8.20264 8.37642 8.99203 7.90229 9.86975 7.74724C10.7475 7.5922 11.6515 7.76719 12.408 8.23855C13.1645 8.70991 13.7199 9.44435 13.9675 10.3006C14.2151 11.1568 14.1373 12.0744 13.7492 12.8767C13.7112 12.9549 13.7058 13.0449 13.7341 13.1271C13.7624 13.2092 13.8222 13.2768 13.9002 13.3149C13.9783 13.3531 14.0683 13.3587 14.1506 13.3305C14.2328 13.3024 14.3005 13.2428 14.3388 13.1648C14.7971 12.2179 14.8891 11.1349 14.5971 10.1243C14.305 9.11365 13.6496 8.24669 12.7569 7.69019C11.8641 7.1337 10.7971 6.92698 9.76114 7.1098C8.72516 7.29262 7.79337 7.85207 7.14503 8.68053C6.49669 9.50898 6.17759 10.5479 6.24913 11.5975C6.32067 12.647 6.77779 13.6331 7.53255 14.3659C8.2873 15.0987 9.28639 15.5266 10.3376 15.5671C11.3888 15.6077 12.4179 15.2581 13.2269 14.5856Z" fill="black"/>
<path d="M11.2014 11.4705C11.5279 11.3105 11.7903 11.0443 11.9456 10.7155C12.101 10.3868 12.14 10.015 12.0564 9.6612C11.9896 9.3728 11.8432 9.10892 11.6339 8.89958C11.4246 8.69024 11.1608 8.54384 10.8724 8.47703C10.6373 8.42112 10.3926 8.41916 10.1567 8.47128C9.92076 8.52341 9.69969 8.62827 9.51005 8.77801C9.32042 8.92775 9.16715 9.11847 9.06174 9.33589C8.95632 9.5533 8.90149 9.79176 8.90137 10.0334C8.90137 10.1204 8.93594 10.2039 8.99747 10.2654C9.05901 10.3269 9.14247 10.3615 9.22949 10.3615C9.31652 10.3615 9.39998 10.3269 9.46151 10.2654C9.52305 10.2039 9.55762 10.1204 9.55762 10.0334C9.55752 9.80288 9.64183 9.58032 9.79461 9.40773C9.9474 9.23513 10.1581 9.12445 10.3869 9.09659C10.6157 9.06873 10.8468 9.12561 11.0366 9.25649C11.2263 9.38738 11.3616 9.58321 11.4168 9.807C11.4669 10.0166 11.4444 10.2369 11.353 10.4321C11.2615 10.6272 11.1065 10.7854 10.9134 10.881C10.6954 10.9809 10.5102 11.1404 10.379 11.341C10.2478 11.5417 10.176 11.7754 10.1719 12.0151V12.5748C10.1719 12.6618 10.2065 12.7452 10.268 12.8068C10.3295 12.8683 10.413 12.9029 10.5 12.9029C10.587 12.9029 10.6705 12.8683 10.732 12.8068C10.7936 12.7452 10.8281 12.6618 10.8281 12.5748V12.0151C10.8329 11.8984 10.8704 11.7854 10.9365 11.6891C11.0025 11.5928 11.0943 11.517 11.2014 11.4705Z" fill="black"/>
<path d="M10.5061 13.5176H10.5029C10.4156 13.518 10.332 13.553 10.2705 13.615C10.209 13.677 10.1746 13.7608 10.1748 13.8481C10.175 13.9354 10.2099 14.0191 10.2717 14.0807C10.3335 14.1424 10.4172 14.177 10.5045 14.177C10.5918 14.177 10.6756 14.1424 10.7374 14.0807C10.7992 14.0191 10.8341 13.9354 10.8343 13.8481C10.8345 13.7608 10.8 13.677 10.7385 13.615C10.677 13.553 10.5934 13.518 10.5061 13.5176Z" fill="black"/>
</svg>
