<svg width="21" height="20" viewBox="0 0 21 20" fill="none" xmlns="http://www.w3.org/2000/svg">
<path d="M17.4008 10.6877C17.6927 10.6877 17.8387 10.6877 17.957 10.7492C18.0546 10.8 18.1455 10.8954 18.1889 10.9927C18.2416 11.1106 18.2284 11.2361 18.2018 11.4871C18.0643 12.7883 17.5927 14.0421 16.8229 15.1362C15.8964 16.453 14.5795 17.4793 13.0387 18.0853C11.498 18.6914 9.80257 18.8499 8.16691 18.541C6.53126 18.232 5.02881 17.4694 3.84957 16.3496C2.67033 15.2298 1.86726 13.803 1.54191 12.2498C1.21655 10.6966 1.38354 9.08658 2.02174 7.62346C2.65994 6.16034 3.74069 4.9098 5.12733 4.02996C6.27949 3.2989 7.59983 2.85106 8.97009 2.72051C9.2344 2.69533 9.36655 2.68273 9.49074 2.73277C9.5932 2.77405 9.69362 2.86032 9.74709 2.953C9.81192 3.06536 9.81192 3.20398 9.81192 3.48122V9.88696C9.81192 10.1672 9.81192 10.3074 9.86936 10.4144C9.91989 10.5086 10.0005 10.5851 10.0997 10.6331C10.2124 10.6877 10.36 10.6877 10.6551 10.6877H17.4008Z" stroke="#2F7FFC" stroke-width="1.5" stroke-linecap="round" stroke-linejoin="round"/>
<path d="M11.6004 1.7828C11.6004 1.50555 11.6004 1.36693 11.6652 1.25457C11.7187 1.16189 11.8191 1.07562 11.9215 1.03434C12.0457 0.984304 12.1779 0.996892 12.4422 1.02207C14.3693 1.20563 16.1811 2.01531 17.5627 3.32733C18.9443 4.63935 19.797 6.3598 19.9903 8.18984C20.0168 8.44083 20.0301 8.56633 19.9774 8.68426C19.9339 8.78155 19.843 8.87691 19.7454 8.92769C19.6271 8.98925 19.4811 8.98925 19.1892 8.98925L12.4436 8.98925C12.1484 8.98925 12.0008 8.98925 11.8881 8.93471C11.7889 8.88673 11.7083 8.81017 11.6578 8.716C11.6004 8.60895 11.6004 8.46881 11.6004 8.18853V1.7828Z" stroke="#2F7FFC" stroke-width="1.5" stroke-linecap="round" stroke-linejoin="round"/>
</svg>
