<?xml version="1.0" encoding="UTF-8"?>
<svg version="1.1" xmlns="http://www.w3.org/2000/svg" width="20" height="20">
<path d="M0 0 C0.66 0.33 1.32 0.66 2 1 C2 3.31 2 5.62 2 8 C4.64 8 7.28 8 10 8 C7.92436975 15.18487395 7.92436975 15.18487395 5 17 C0.62761404 17.64776088 -1.28847911 17.4995785 -4.9375 14.9375 C-7.52001338 11.25937488 -7.72125695 9.40768137 -7 5 C-4.78136971 2.09282927 -3.48055071 1.16018357 0 0 Z M-3.125 4.6875 C-5.28115645 6.83579789 -5.28115645 6.83579789 -4.9375 9.5625 C-3.91878499 12.21115903 -3.41931452 13.49835651 -1 15 C2.08995097 15.08223366 2.08995097 15.08223366 5 14 C6.43637698 12.04836882 6.43637698 12.04836882 7 10 C4.69 10 2.38 10 0 10 C0 7.69 0 5.38 0 3 C-1.32173764 2.89635298 -1.32173764 2.89635298 -3.125 4.6875 Z " fill="#FFFFFF" transform="translate(7,3)"/>
<path d="M0 0 C5.46835443 0.48607595 5.46835443 0.48607595 7.875 2.8125 C9 5 9 5 9 9 C6.03 9 3.06 9 0 9 C0 6.03 0 3.06 0 0 Z M2 2 C2 3.65 2 5.3 2 7 C3.65 7 5.3 7 7 7 C5.35 5.35 3.7 3.7 2 2 Z " fill="#FFFFFF" transform="translate(11,0)"/>
</svg>
