<svg width="20" height="20" viewBox="0 0 20 20" fill="none" xmlns="http://www.w3.org/2000/svg">
<path d="M15.3837 16.2488H4.61699C4.04927 16.2494 3.50105 16.0417 3.07626 15.6651C2.65147 15.2885 2.37964 14.769 2.3123 14.2053C2.30006 14.1064 2.29328 14.0068 2.29199 13.9071C2.29411 13.5814 2.36527 13.2599 2.50078 12.9638C2.63629 12.6677 2.83307 12.4036 3.07813 12.1891L3.39225 11.908C3.7924 11.5513 4.05978 11.0695 4.15072 10.5412L4.80827 6.59588C4.98838 5.48417 5.52174 4.46003 6.32937 3.67513C7.13699 2.89022 8.17593 2.38629 9.29232 2.23796C9.45657 2.21595 9.62284 2.26008 9.75454 2.36066C9.88625 2.46123 9.97261 2.61001 9.99463 2.77426C10.0166 2.93851 9.97251 3.10478 9.87194 3.23649C9.77136 3.36819 9.62258 3.45456 9.45833 3.47657C8.60702 3.59031 7.81498 3.9752 7.1995 4.57426C6.58403 5.17331 6.17787 5.95466 6.04116 6.80259L5.38366 10.7516C5.24371 11.5593 4.83473 12.2959 4.22318 12.8418L3.90905 13.123C3.7958 13.2202 3.7045 13.3404 3.64123 13.4756C3.57795 13.6107 3.54414 13.7578 3.54203 13.9071C3.54313 13.9598 3.54748 14.0124 3.55505 14.0646C3.58725 14.3232 3.71307 14.5611 3.90875 14.7332C4.10442 14.9053 4.35638 14.9998 4.61699 14.9988H15.3837C15.6486 15.0002 15.9045 14.9025 16.1011 14.7248C16.2976 14.5471 16.4205 14.3023 16.4457 14.0385C16.4465 14.0296 16.4554 13.9628 16.4563 13.9539C16.4688 13.7844 16.4412 13.6144 16.3757 13.4576C16.3102 13.3008 16.2087 13.1616 16.0795 13.0514L15.8516 12.8634C15.2122 12.3148 14.7844 11.5601 14.6423 10.7296L14.2166 8.15924C14.1906 7.99611 14.2302 7.82932 14.3267 7.69529C14.4233 7.56125 14.569 7.47087 14.7319 7.44388C14.8949 7.41689 15.0619 7.45549 15.1965 7.55124C15.3311 7.647 15.4224 7.79212 15.4503 7.95493L15.8751 10.5217C15.9666 11.0606 16.2432 11.5507 16.6572 11.9076L16.8908 12.1008C17.2526 12.4139 17.5108 12.8294 17.6313 13.2924C17.7517 13.7554 17.7287 14.2441 17.5654 14.6937C17.402 15.1434 17.1059 15.5328 16.7163 15.8105C16.3267 16.0882 15.862 16.241 15.3837 16.2488Z" fill="black"/>
<path d="M10 18.9583C9.1715 18.9574 8.37721 18.6278 7.79137 18.042C7.20553 17.4561 6.87597 16.6618 6.875 15.8333V15.625C6.875 15.4592 6.94085 15.3003 7.05806 15.1831C7.17527 15.0658 7.33424 15 7.5 15C7.66576 15 7.82473 15.0658 7.94194 15.1831C8.05915 15.3003 8.125 15.4592 8.125 15.625V15.8333C8.125 16.3306 8.32254 16.8075 8.67417 17.1592C9.02581 17.5108 9.50272 17.7083 10 17.7083C10.4973 17.7083 10.9742 17.5108 11.3258 17.1592C11.6775 16.8075 11.875 16.3306 11.875 15.8333V15.625C11.875 15.4592 11.9408 15.3003 12.0581 15.1831C12.1753 15.0658 12.3342 15 12.5 15C12.6658 15 12.8247 15.0658 12.9419 15.1831C13.0592 15.3003 13.125 15.4592 13.125 15.625V15.8333C13.124 16.6618 12.7945 17.4561 12.2086 18.042C11.6228 18.6278 10.8285 18.9574 10 18.9583Z" fill="black"/>
<path d="M13.334 7.29102C12.7159 7.29102 12.1117 7.10774 11.5978 6.76436C11.0839 6.42098 10.6834 5.93292 10.4469 5.3619C10.2103 4.79088 10.1485 4.16255 10.269 3.55636C10.3896 2.95017 10.6872 2.39335 11.1243 1.95631C11.5613 1.51927 12.1181 1.22164 12.7243 1.10106C13.3305 0.980484 13.9589 1.04237 14.5299 1.27889C15.1009 1.51542 15.5889 1.91596 15.9323 2.42986C16.2757 2.94376 16.459 3.54795 16.459 4.16602C16.458 4.99452 16.1285 5.78881 15.5426 6.37465C14.9568 6.96049 14.1625 7.29004 13.334 7.29102ZM13.334 2.29102C12.9631 2.29102 12.6006 2.40098 12.2923 2.60701C11.9839 2.81304 11.7436 3.10587 11.6017 3.44849C11.4598 3.7911 11.4227 4.1681 11.495 4.53181C11.5674 4.89553 11.7459 5.22962 12.0082 5.49184C12.2704 5.75407 12.6045 5.93264 12.9682 6.00499C13.3319 6.07734 13.7089 6.04021 14.0515 5.89829C14.3941 5.75638 14.687 5.51605 14.893 5.20771C15.099 4.89937 15.209 4.53686 15.209 4.16602C15.2084 3.66892 15.0106 3.19237 14.6591 2.84087C14.3076 2.48937 13.8311 2.29163 13.334 2.29102Z" fill="black"/>
</svg>
