<svg width="21" height="21" viewBox="0 0 21 21" fill="none" xmlns="http://www.w3.org/2000/svg">
<g clip-path="url(#clip0_1486_775)">
<path d="M6.36772 5.05079L6.87545 5.24573C6.96453 5.60474 7.10637 5.94681 7.29869 6.26653L7.07737 6.76483C7.02233 6.88878 7.04927 7.03385 7.14517 7.12975L7.71254 7.69711C7.80843 7.79301 7.9535 7.81992 8.07745 7.76491L8.57588 7.54355C8.89358 7.73563 9.23561 7.8775 9.59659 7.96687L9.79281 8.47608C9.84153 8.60262 9.96315 8.68608 10.0987 8.68608H10.901C11.0366 8.68608 11.1582 8.60262 11.2069 8.47608L11.4031 7.96687C11.7639 7.87754 12.1062 7.73579 12.4246 7.54388L12.9223 7.76495C13.0461 7.81992 13.1912 7.79305 13.2872 7.69716L13.8545 7.12979C13.9504 7.03389 13.9774 6.88882 13.9223 6.76487L13.7008 6.26612C13.8932 5.94714 14.0351 5.6052 14.1243 5.24578L14.632 5.05083C14.7587 5.00214 14.8423 4.88049 14.8423 4.74473V3.94136C14.8423 3.80559 14.7587 3.68394 14.632 3.63526L14.1243 3.44031C14.0351 3.08085 13.8932 2.7389 13.7008 2.41996L13.9223 1.92121C13.9774 1.79726 13.9504 1.65215 13.8545 1.5563L13.2872 0.988928C13.1913 0.892992 13.0462 0.866127 12.9222 0.921129L12.4238 1.14253C12.1061 0.950414 11.7641 0.808541 11.403 0.719168L11.2068 0.21C11.1581 0.0834668 11.0365 0 10.9009 0H10.0987C9.96306 0 9.84145 0.0834668 9.79273 0.21L9.59651 0.719168C9.23549 0.808582 8.89346 0.950455 8.57571 1.14253L8.07733 0.921129C7.95342 0.866086 7.80827 0.892992 7.71237 0.988928L7.145 1.5563C7.04911 1.65219 7.02212 1.79726 7.0772 1.92121L7.29873 2.41996C7.10641 2.7389 6.96449 3.08085 6.87528 3.44031L6.36755 3.63526C6.24086 3.68394 6.15722 3.80559 6.15722 3.94136V4.74473C6.15739 4.88045 6.24102 5.00214 6.36772 5.05079ZM6.81311 4.16665L7.27494 3.98926C7.38019 3.94882 7.45726 3.85707 7.47899 3.74641C7.55746 3.34687 7.71332 2.97125 7.94227 2.63004C8.0051 2.53637 8.0154 2.41701 7.9695 2.31398L7.76803 1.86076L8.017 1.61179L8.47022 1.81326C8.5735 1.8592 8.69314 1.84874 8.78682 1.78562C9.12544 1.55736 9.50086 1.40163 9.90269 1.32271C10.0133 1.30102 10.1051 1.22395 10.1455 1.11866L10.3238 0.655717H10.676L10.8543 1.11866C10.8947 1.22391 10.9864 1.30097 11.0971 1.32271C11.4989 1.40163 11.8743 1.55736 12.2129 1.78562C12.3067 1.84874 12.4263 1.8592 12.5295 1.81326L12.9827 1.61179L13.2317 1.86076L13.0303 2.31398C12.9844 2.41701 12.9947 2.53637 13.0575 2.63004C13.2864 2.97121 13.4423 3.34687 13.5208 3.74641C13.5425 3.85707 13.6196 3.94882 13.7248 3.98926L14.1866 4.16665V4.51943L13.7248 4.69682C13.6196 4.73726 13.5425 4.82902 13.5208 4.93968C13.4423 5.33917 13.2864 5.71479 13.0575 6.05612C12.9947 6.14976 12.9844 6.26916 13.0303 6.37219L13.2317 6.82533L12.9827 7.07433L12.5276 6.87315C12.425 6.82824 12.3065 6.83882 12.2135 6.90125C11.8738 7.12913 11.4982 7.28462 11.097 7.36341C10.9864 7.38511 10.8947 7.46222 10.8542 7.56751L10.6759 8.03045H10.3238L10.1455 7.56751C10.105 7.46226 10.0133 7.38515 9.90265 7.36341C9.50086 7.2845 9.1254 7.12876 8.78678 6.90051C8.69306 6.83739 8.57337 6.82689 8.4701 6.87291L8.01696 7.07437L7.76795 6.82537L7.96905 6.37428C8.01531 6.27121 8.00527 6.15161 7.94247 6.05772C7.71327 5.71495 7.55729 5.33884 7.47891 4.93972C7.45717 4.82906 7.38011 4.7373 7.27486 4.69686L6.81302 4.51947V4.16665H6.81311ZM10.4999 6.55733C11.7212 6.55733 12.7147 5.56373 12.7147 4.34245C12.7147 3.12182 11.7212 2.12875 10.4999 2.12875C9.2786 2.12875 8.28503 3.12182 8.28503 4.34245C8.28503 5.56373 9.2786 6.55733 10.4999 6.55733ZM10.4999 2.78455C11.3596 2.78455 12.059 3.48342 12.059 4.34245C12.059 5.20218 11.3596 5.90157 10.4999 5.90157C9.64015 5.90157 8.94075 5.20218 8.94075 4.34245C8.94075 3.48342 9.64019 2.78455 10.4999 2.78455ZM4.21321 17.826C3.99221 17.7712 3.77155 17.7294 3.55138 17.6989C3.91748 17.3813 4.15763 16.8547 4.15763 16.2596C4.15763 15.3732 3.60224 14.8004 2.74267 14.8004C1.88311 14.8004 1.32772 15.3732 1.32772 16.2596C1.32772 16.8532 1.56667 17.3786 1.93126 17.6966C1.70916 17.7272 1.48837 17.7702 1.26939 17.8267C0.462697 18.034 0 18.5061 0 19.122V20.6718C0 20.8529 0.146795 20.9997 0.327879 20.9997C0.508963 20.9997 0.655758 20.8529 0.655758 20.6718V19.122C0.655758 18.7413 1.07822 18.5528 1.43292 18.4617C2.29638 18.2389 3.15422 18.2391 4.0555 18.4624C4.34462 18.5341 4.82967 18.7151 4.82967 19.122V20.6718C4.82967 20.8529 4.97647 20.9997 5.15755 20.9997C5.33863 20.9997 5.48543 20.8529 5.48543 20.6718V19.122C5.48539 18.4987 5.02171 18.0264 4.21321 17.826ZM2.74267 15.4562C3.08901 15.4562 3.50187 15.5956 3.50187 16.2596C3.50187 16.8558 3.15418 17.3595 2.74267 17.3595C2.33116 17.3595 1.98347 16.8558 1.98347 16.2596C1.98347 15.5956 2.39634 15.4562 2.74267 15.4562ZM11.9704 17.826C11.7494 17.7712 11.5288 17.7294 11.3086 17.6989C11.6747 17.3813 11.9148 16.8547 11.9148 16.2596C11.9148 15.3732 11.3594 14.8004 10.4999 14.8004C9.64031 14.8004 9.08492 15.3732 9.08492 16.2596C9.08492 16.8532 9.32388 17.3786 9.68846 17.6966C9.46636 17.7272 9.24558 17.7702 9.0266 17.8267C8.21986 18.034 7.75716 18.5061 7.75716 19.122V20.6718C7.75716 20.8529 7.90396 20.9997 8.08504 20.9997C8.26612 20.9997 8.41292 20.8529 8.41292 20.6718V19.122C8.41292 18.7413 8.83538 18.5528 9.19012 18.4617C10.0535 18.2389 10.9114 18.2391 11.8127 18.4624C12.1018 18.5341 12.5868 18.7151 12.5868 19.122V20.6718C12.5868 20.8529 12.7336 20.9997 12.9147 20.9997C13.0958 20.9997 13.2426 20.8529 13.2426 20.6718V19.122C13.2426 18.4987 12.7789 18.0264 11.9704 17.826ZM10.4999 15.4562C10.8462 15.4562 11.2591 15.5956 11.2591 16.2596C11.2591 16.8558 10.9114 17.3595 10.4999 17.3595C10.0884 17.3595 9.74068 16.8558 9.74068 16.2596C9.74068 15.5956 10.1535 15.4562 10.4999 15.4562ZM19.7276 17.826C19.5066 17.7712 19.2859 17.7294 19.0657 17.6989C19.4319 17.3813 19.672 16.8547 19.672 16.2596C19.672 15.3732 19.1166 14.8004 18.257 14.8004C17.3975 14.8004 16.8421 15.3732 16.8421 16.2596C16.8421 16.8532 17.081 17.3786 17.4456 17.6966C17.2235 17.7272 17.0027 17.7702 16.7838 17.8267C15.977 18.034 15.5144 18.506 15.5144 19.122V20.6718C15.5144 20.8529 15.6612 20.9997 15.8422 20.9997C16.0233 20.9997 16.1701 20.8529 16.1701 20.6718V19.122C16.1701 18.7413 16.5926 18.5528 16.9473 18.4617C17.8107 18.2389 18.6686 18.2391 19.5699 18.4624C19.859 18.5341 20.344 18.7151 20.344 19.122V20.6718C20.344 20.8529 20.4908 20.9997 20.6719 20.9997C20.853 20.9997 20.9998 20.8529 20.9998 20.6718V19.122C20.9998 18.4987 20.5361 18.0264 19.7276 17.826ZM18.257 15.4562C18.6034 15.4562 19.0162 15.5956 19.0162 16.2596C19.0162 16.8558 18.6686 17.3595 18.257 17.3595C17.8455 17.3595 17.4978 16.8558 17.4978 16.2596C17.4978 15.5956 17.9107 15.4562 18.257 15.4562ZM2.41479 13.6204V11.6357C2.41479 11.4546 2.56159 11.3078 2.74267 11.3078H10.172V9.76504C10.172 9.58396 10.3188 9.43716 10.4999 9.43716C10.681 9.43716 10.8278 9.58396 10.8278 9.76504V11.3078H18.2571C18.4382 11.3078 18.585 11.4546 18.585 11.6357V13.6204C18.585 13.8015 18.4382 13.9483 18.2571 13.9483C18.076 13.9483 17.9292 13.8015 17.9292 13.6204V11.9636H10.8278V13.6204C10.8278 13.8015 10.681 13.9483 10.4999 13.9483C10.3188 13.9483 10.172 13.8015 10.172 13.6204V11.9636H3.07055V13.6204C3.07055 13.8015 2.92376 13.9483 2.74267 13.9483C2.56159 13.9483 2.41479 13.8015 2.41479 13.6204Z" fill="black"/>
</g>
<defs>
<clipPath id="clip0_1486_775">
<rect width="21" height="21" fill="white"/>
</clipPath>
</defs>
</svg>
