<svg width="21" height="21" viewBox="0 0 21 21" fill="none" xmlns="http://www.w3.org/2000/svg">
<path d="M17.5 3.0625H16.1875V1.75C16.1871 1.40202 16.0487 1.06841 15.8026 0.822357C15.5566 0.576301 15.223 0.437894 14.875 0.4375H3.5C3.15202 0.437894 2.81841 0.576301 2.57236 0.822357C2.3263 1.06841 2.18789 1.40202 2.1875 1.75V16.625C2.18789 16.973 2.3263 17.3066 2.57236 17.5526C2.81841 17.7987 3.15202 17.9371 3.5 17.9375H4.8125V19.25C4.81289 19.598 4.9513 19.9316 5.19736 20.1776C5.44341 20.4237 5.77702 20.5621 6.125 20.5625H17.5C17.848 20.5621 18.1816 20.4237 18.4276 20.1776C18.6737 19.9316 18.8121 19.598 18.8125 19.25V4.375C18.8121 4.02702 18.6737 3.69341 18.4276 3.44736C18.1816 3.2013 17.848 3.06289 17.5 3.0625ZM3.0625 16.625V1.75C3.06264 1.63401 3.10878 1.52281 3.19079 1.44079C3.27281 1.35878 3.38401 1.31264 3.5 1.3125H14.875C14.991 1.31264 15.1022 1.35878 15.1842 1.44079C15.2662 1.52281 15.3124 1.63401 15.3125 1.75V16.625C15.3124 16.741 15.2662 16.8522 15.1842 16.9342C15.1022 17.0162 14.991 17.0624 14.875 17.0625H3.5C3.38401 17.0624 3.27281 17.0162 3.19079 16.9342C3.10878 16.8522 3.06264 16.741 3.0625 16.625ZM17.9375 19.25C17.9374 19.366 17.8912 19.4772 17.8092 19.5592C17.7272 19.6412 17.616 19.6874 17.5 19.6875H6.125C6.00901 19.6874 5.89781 19.6412 5.81579 19.5592C5.73378 19.4772 5.68764 19.366 5.6875 19.25V17.9375H14.875C15.223 17.9371 15.5566 17.7987 15.8026 17.5526C16.0487 17.3066 16.1871 16.973 16.1875 16.625V3.9375H17.5C17.616 3.93764 17.7272 3.98378 17.8092 4.06579C17.8912 4.14781 17.9374 4.25901 17.9375 4.375V19.25Z" fill="black"/>
<path d="M7 14.6563C7.11603 14.6563 7.22731 14.6102 7.30936 14.5281C7.39141 14.4461 7.4375 14.3348 7.4375 14.2188C7.4375 14.1027 7.39141 13.9914 7.30936 13.9094C7.22731 13.8273 7.11603 13.7812 7 13.7812H5.25C5.13397 13.7812 5.02269 13.8273 4.94064 13.9094C4.85859 13.9914 4.8125 14.1027 4.8125 14.2188C4.8125 14.3348 4.85859 14.4461 4.94064 14.5281C5.02269 14.6102 5.13397 14.6563 5.25 14.6563H7Z" fill="black"/>
<path d="M13.125 13.7812H8.75C8.63397 13.7812 8.52269 13.8273 8.44064 13.9094C8.35859 13.9914 8.3125 14.1027 8.3125 14.2188C8.3125 14.3348 8.35859 14.4461 8.44064 14.5281C8.52269 14.6102 8.63397 14.6563 8.75 14.6563H13.125C13.241 14.6563 13.3523 14.6102 13.4344 14.5281C13.5164 14.4461 13.5625 14.3348 13.5625 14.2188C13.5625 14.1027 13.5164 13.9914 13.4344 13.9094C13.3523 13.8273 13.241 13.7812 13.125 13.7812Z" fill="black"/>
<path d="M5.25 12.0313H7C7.11603 12.0313 7.22731 11.9852 7.30936 11.9031C7.39141 11.8211 7.4375 11.7098 7.4375 11.5938C7.4375 11.4777 7.39141 11.3664 7.30936 11.2844C7.22731 11.2023 7.11603 11.1562 7 11.1562H5.25C5.13397 11.1562 5.02269 11.2023 4.94064 11.2844C4.85859 11.3664 4.8125 11.4777 4.8125 11.5938C4.8125 11.7098 4.85859 11.8211 4.94064 11.9031C5.02269 11.9852 5.13397 12.0313 5.25 12.0313Z" fill="black"/>
<path d="M8.75 11.1562C8.63397 11.1562 8.52269 11.2023 8.44064 11.2844C8.35859 11.3664 8.3125 11.4777 8.3125 11.5938C8.3125 11.7098 8.35859 11.8211 8.44064 11.9031C8.52269 11.9852 8.63397 12.0313 8.75 12.0313H13.125C13.241 12.0313 13.3523 11.9852 13.4344 11.9031C13.5164 11.8211 13.5625 11.7098 13.5625 11.5938C13.5625 11.4777 13.5164 11.3664 13.4344 11.2844C13.3523 11.2023 13.241 11.1562 13.125 11.1562H8.75Z" fill="black"/>
<path d="M9.1875 10.0625C9.96626 10.0625 10.7275 9.83157 11.3751 9.39891C12.0226 8.96626 12.5273 8.3513 12.8253 7.63182C13.1233 6.91233 13.2013 6.12063 13.0493 5.35683C12.8974 4.59303 12.5224 3.89144 11.9717 3.34077C11.4211 2.7901 10.7195 2.41509 9.95567 2.26316C9.19187 2.11123 8.40017 2.18921 7.68068 2.48723C6.9612 2.78525 6.34625 3.28993 5.91359 3.93744C5.48093 4.58496 5.25 5.34624 5.25 6.125C5.25116 7.16894 5.66637 8.16978 6.40455 8.90796C7.14272 9.64613 8.14357 10.0613 9.1875 10.0625ZM12.2062 5.6875H9.625V3.10669C10.2759 3.20122 10.8789 3.50354 11.344 3.96861C11.8092 4.43368 12.1116 5.03659 12.2062 5.6875ZM8.75 3.10669V6.125C8.75 6.24103 8.79609 6.35231 8.87814 6.43436C8.96019 6.51641 9.07147 6.5625 9.1875 6.5625H12.2062C12.1262 7.12442 11.8913 7.65295 11.5278 8.08885C11.1643 8.52474 10.6866 8.85078 10.1482 9.03041C9.60974 9.21004 9.03195 9.23617 8.47953 9.10585C7.9271 8.97554 7.4219 8.69394 7.02053 8.29263C6.61916 7.89131 6.3375 7.38614 6.20712 6.83374C6.07674 6.28133 6.10279 5.70353 6.28235 5.1651C6.46191 4.62667 6.78789 4.14889 7.22374 3.78532C7.65959 3.42175 8.18809 3.18676 8.75 3.10669Z" fill="black"/>
</svg>
