<svg width="21" height="21" viewBox="0 0 21 21" fill="none" xmlns="http://www.w3.org/2000/svg">
<g clip-path="url(#clip0_1486_761)">
<path d="M4.375 12.75H11.375C13.5489 12.75 15.25 14.4511 15.25 16.625V18.375C15.25 18.5239 15.203 18.6095 15.1562 18.6562C15.1095 18.703 15.0239 18.75 14.875 18.75C14.7261 18.75 14.6405 18.703 14.5938 18.6562C14.547 18.6095 14.5 18.5239 14.5 18.375V16.625C14.5 14.8614 13.1386 13.5 11.375 13.5H4.375C2.61136 13.5 1.25 14.8614 1.25 16.625V18.375C1.25 18.5239 1.20299 18.6095 1.15625 18.6562C1.10951 18.703 1.02388 18.75 0.875 18.75C0.726124 18.75 0.640485 18.703 0.59375 18.6562C0.547015 18.6095 0.5 18.5239 0.5 18.375V16.625C0.5 14.4511 2.20114 12.75 4.375 12.75Z" fill="black" stroke="black"/>
<path d="M7.875 2.25C10.0489 2.25 11.75 3.95114 11.75 6.125C11.75 8.29886 10.0489 10 7.875 10C5.70114 10 4 8.29886 4 6.125C4 3.95114 5.70114 2.25 7.875 2.25ZM7.875 2.5C6.95463 2.5 6.07405 2.99874 5.43945 3.6582C4.80424 4.31833 4.33984 5.21738 4.33984 6.125C4.33984 6.95374 4.57141 7.85112 5.14551 8.55176C5.73258 9.26818 6.63837 9.72949 7.875 9.72949C9.98447 9.72949 11.415 7.84247 11.415 6.125C11.415 5.2169 10.9488 4.31715 10.3125 3.65723C9.67687 2.99807 8.79508 2.5 7.875 2.5Z" fill="black" stroke="black"/>
<path d="M17.4893 12.8896L17.5156 12.8994L17.5439 12.9072C19.2452 13.3714 20.417 14.9217 20.5 16.6357V18.375C20.5 18.5234 20.4529 18.6085 20.4062 18.6553C20.3595 18.702 20.2739 18.75 20.125 18.75C19.9762 18.75 19.8914 18.702 19.8447 18.6553C19.798 18.6085 19.75 18.5238 19.75 18.375V16.625C19.75 15.1792 18.8123 13.9137 17.3428 13.5986L17.3359 13.5967L17.2861 13.5801C17.2334 13.5552 17.1728 13.5061 17.1279 13.4326C17.07 13.3376 17.0739 13.2625 17.0898 13.2227L17.1064 13.1807L17.1152 13.1357C17.1273 13.0753 17.1813 12.9876 17.2793 12.9277C17.3745 12.8695 17.4494 12.8737 17.4893 12.8896Z" fill="black" stroke="black"/>
<path d="M13.9893 2.38965L14.0186 2.40137L14.0498 2.40918C16.1467 2.95291 17.3835 5.04343 16.8408 7.13672C16.4481 8.54062 15.4559 9.59443 14.1152 9.91211H14C13.9411 9.91206 13.8463 9.88667 13.7598 9.82324C13.6778 9.76307 13.6303 9.68954 13.6152 9.61426C13.5967 9.5216 13.6151 9.40095 13.6719 9.29883C13.728 9.19787 13.7939 9.16075 13.8359 9.15234L13.8525 9.14941L13.8691 9.14453C15.0024 8.83545 15.8364 8.00243 16.1455 6.86914L16.1475 6.8584C16.5685 5.17375 15.5113 3.53014 13.8867 3.02246L13.8145 3H13.7373C13.7327 2.99998 13.7291 2.99968 13.7207 2.99414C13.7092 2.98651 13.6875 2.96777 13.665 2.92969C13.6166 2.84729 13.5962 2.73117 13.6152 2.63574C13.6273 2.57528 13.6813 2.48762 13.7793 2.42773C13.8745 2.36954 13.9494 2.3737 13.9893 2.38965Z" fill="black" stroke="black"/>
</g>
<defs>
<clipPath id="clip0_1486_761">
<rect width="21" height="21" fill="white"/>
</clipPath>
</defs>
</svg>
