<?xml version="1.0" encoding="UTF-8"?>
<svg version="1.1" xmlns="http://www.w3.org/2000/svg" width="24" height="25">
<path d="M0 0 C1.27875 -0.061875 2.5575 -0.12375 3.875 -0.1875 C4.95394531 -0.23970703 4.95394531 -0.23970703 6.0546875 -0.29296875 C6.69664063 -0.19628906 7.33859375 -0.09960938 8 0 C8.66 0.99 9.32 1.98 10 3 C11.32 3 12.64 3 14 3 C16.37868203 6.63798428 15.76237522 8.84929048 15 13 C15.185625 13.86625 15.37125 14.7325 15.5625 15.625 C16.08861971 18.48107843 15.51830222 19.58857883 14 22 C12.35 22 10.7 22 9 22 C8.67 22.99 8.34 23.98 8 25 C6.72125 25.061875 5.4425 25.12375 4.125 25.1875 C3.04605469 25.23970703 3.04605469 25.23970703 1.9453125 25.29296875 C1.30335937 25.19628906 0.66140625 25.09960938 0 25 C-0.66 24.01 -1.32 23.02 -2 22 C-3.32 22 -4.64 22 -6 22 C-8.37868203 18.36201572 -7.76237522 16.15070952 -7 12 C-7.2784375 10.700625 -7.2784375 10.700625 -7.5625 9.375 C-8.08861971 6.51892157 -7.51830222 5.41142117 -6 3 C-4.35 3 -2.7 3 -1 3 C-0.67 2.01 -0.34 1.02 0 0 Z M3 2 C2.67 3.32 2.34 4.64 2 6 C0.02 6 -1.96 6 -4 6 C-4 8.2084316 -3.99006681 10.41719411 -3.9375 12.625 C-4 15 -4 15 -5 17 C-3.16116119 19.28728734 -3.16116119 19.28728734 -0.375 19.125 C0.40875 19.08375 1.1925 19.0425 2 19 C2.33 20.32 2.66 21.64 3 23 C3.99 22.67 4.98 22.34 6 22 C6 21.01 6 20.02 6 19 C7.98 19 9.96 19 12 19 C12 16.7915684 11.99006681 14.58280589 11.9375 12.375 C12 10 12 10 13 8 C11.16116119 5.71271266 11.16116119 5.71271266 8.375 5.875 C7.59125 5.91625 6.8075 5.9575 6 6 C5.67 4.68 5.34 3.36 5 2 C4.34 2 3.68 2 3 2 Z " fill="#0C1791" transform="translate(8,0)"/>
<path d="M0 0 C1.010625 0.0825 2.02125 0.165 3.0625 0.25 C5.0625 3.25 5.0625 3.25 4.75 5.875 C4.0625 8.25 4.0625 8.25 3.0625 9.25 C0.125 9.5 0.125 9.5 -2.9375 9.25 C-4.9375 6.25 -4.9375 6.25 -4.625 3.625 C-3.63837192 0.21664846 -3.64560971 0.31026466 0 0 Z M-1.9375 3.25 C-1.9375 4.24 -1.9375 5.23 -1.9375 6.25 C-0.6175 6.25 0.7025 6.25 2.0625 6.25 C2.0625 5.26 2.0625 4.27 2.0625 3.25 C0.7425 3.25 -0.5775 3.25 -1.9375 3.25 Z " fill="#0B1891" transform="translate(11.9375,7.75)"/>
</svg>
